<?xml version="1.0" encoding="iso-8859-1"?>
<!-- Generator: Adobe Illustrator 19.0.0, SVG Export Plug-In . SVG Version: 6.00 Build 0)  -->
<svg version="1.1" id="Capa_1" xmlns="http://www.w3.org/2000/svg" xmlns:xlink="http://www.w3.org/1999/xlink" x="0px" y="0px"
	 viewBox="0 0 512.003 512.003" style="enable-background:new 0 0 512.003 512.003;" xml:space="preserve">
<path id="SVGCleanerId_0" d="M187.742,153.603c32.989,0,59.732-26.743,59.732-59.732s-26.743-59.732-59.732-59.732
	S128.01,60.882,128.01,93.871C128.052,126.843,154.77,153.561,187.742,153.603z M187.742,136.537
	c-23.56,0.009-42.666-19.097-42.674-42.657c0-2.867,0.29-5.734,0.862-8.542h83.625c4.71,23.091-10.18,45.627-33.271,50.337
	C193.476,136.247,190.618,136.537,187.742,136.537z M187.742,51.205c13.354,0.043,25.924,6.357,33.911,17.066h-67.822
	C161.827,57.562,174.388,51.239,187.742,51.205z"/>
<path id="SVGCleanerId_1" d="M28.632,366.711c3.507,0.998,7.134,1.51,10.777,1.51c17.51-0.017,32.921-11.537,37.913-28.313
	l16.554-56.319v30.003l-4.855,4.215c-3.558,3.089-3.934,8.473-0.853,12.032c1.468,1.638,3.516,2.645,5.709,2.79v32.162l-4.855,4.215
	c-3.558,3.089-3.934,8.473-0.853,12.032c1.468,1.638,3.516,2.645,5.709,2.79v80.212l-3.601,1.801
	c-12.04,5.99-16.947,20.616-10.948,32.656c4.122,8.286,12.586,13.517,21.836,13.5h69.511c4.71,0,8.533-3.823,8.533-8.533V349.867
	h17.066v153.597c0,4.71,3.823,8.533,8.533,8.533h69.511c13.448,0,24.354-10.905,24.354-24.354c0-9.224-5.214-17.664-13.465-21.785
	l-3.601-1.8v-80.212c0.239,0.051,0.478,0.094,0.725,0.128c4.71,0,8.533-3.814,8.542-8.525c0-2.509-1.101-4.89-3.021-6.519
	l-6.246-5.265v-30.993c0.239,0.051,0.478,0.094,0.725,0.128c4.71,0,8.533-3.814,8.542-8.525c0-2.509-1.101-4.89-3.021-6.519
	l-6.246-5.291v-38.852l9.267,18.534c7.185,14.498,21.982,23.645,38.16,23.586h63.504v196.263h17.066V315.376
	c21.009-1.835,36.556-20.36,34.713-41.369c-1.613-18.466-16.256-33.1-34.713-34.713V102.404h93.865c4.71,0,8.533-3.823,8.533-8.533
	V8.539c0-4.71-3.823-8.533-8.533-8.533H401.072c-4.71,0-8.533,3.823-8.533,8.533v230.396h-36.394l-22.86-51.455
	c-3.132-6.997-8.098-13.013-14.378-17.408l0.384-0.179c4.241-2.057,6.016-7.159,3.968-11.4c-1.399-2.893-4.301-4.753-7.518-4.813
	V51.205c0-18.85-15.283-34.133-34.133-34.133h-40.063c-32.247-22.732-75.314-22.732-107.561,0H93.877
	c-18.85,0-34.133,15.283-34.133,34.133v102.398c-4.71,0.034-8.499,3.891-8.465,8.601c0.026,3.302,1.954,6.298,4.958,7.68
	l3.507,1.638v4.804c-13.952,10.129-23.816,24.917-27.827,41.693L1.718,317.304c-6.34,20.838,5.41,42.871,26.257,49.211
	C28.197,366.583,28.41,366.643,28.632,366.711z M33.291,350.302c-11.887-3.396-18.764-15.786-15.368-27.673
	c0.034-0.119,0.068-0.239,0.102-0.358l3.567-11.725l43.366,10.846l-4.028,13.704C57.423,346.863,45.118,353.63,33.291,350.302z
	 M84.106,182.497l9.77,4.386v31.999L54.411,207.61c6.579-11.665,17.126-20.574,29.721-25.113H84.106z M264.541,435.199h-51.199
	v-17.066h51.199V435.199z M264.541,401.066h-51.199v-17.066h51.199V401.066z M233.429,322.859c-1.92-1.613-3.021-3.994-3.021-6.502
	v-9.156c0-4.71-3.823-8.533-8.533-8.533c-4.71,0-8.533,3.823-8.533,8.533v9.156c0.026,6.033,2.193,11.861,6.118,16.443h-63.291
	c3.84-4.574,5.956-10.351,5.973-16.324v-9.276c0-4.71-3.823-8.533-8.533-8.533s-8.533,3.823-8.533,8.533v9.276
	c0,2.475-1.075,4.83-2.944,6.451l-11.375,9.873h-19.814v-11.409l42.376-36.77c5.606-4.864,8.823-11.921,8.823-19.345v-0.742h51.199
	v0.623c-0.009,7.526,3.311,14.677,9.062,19.532l42.137,35.686V332.8h-19.379L233.429,322.859z M187.742,230.402
	c4.71,0,8.533-3.823,8.533-8.533v-8.533h17.066v34.133h-51.199v-34.133h17.066v8.533
	C179.209,226.579,183.032,230.402,187.742,230.402z M220.748,196.269h-64.579l-37.836-17.066h139.671L220.748,196.269z
	 M90.191,235.582l-8.081,27.485L39.7,250.95l8.354-27.374L90.191,235.582z M77.297,279.442l-7.518,25.557l-43.195-10.803
	l8.183-26.914L77.297,279.442z M110.943,225.581l0.384-1.306l-0.384-0.111v-29.602l34.133,15.36v55.295
	c0,2.475-1.075,4.83-2.944,6.451l-31.189,27.127V225.581z M110.943,349.867h0.145l-0.145,0.128V349.867z M110.943,418.132h51.199
	v17.066h-51.199C110.943,435.199,110.943,418.132,110.943,418.132z M110.943,401.066v-17.066h51.199v17.066H110.943z
	 M101.164,494.931c-4.028,0-7.287-3.268-7.279-7.296c0-2.756,1.562-5.282,4.028-6.511l8.311-4.156
	c2.893-1.442,4.719-4.403,4.719-7.637v-17.066h51.199v42.666H101.164z M162.142,366.933h-44.68l19.626-17.066h25.053V366.933z
	 M238.941,349.867l20.155,17.066h-45.755v-17.066H238.941z M274.362,494.931h-61.021v-42.666h51.199v17.066
	c-0.017,3.251,1.809,6.229,4.719,7.68l8.311,4.156c3.575,1.843,4.983,6.238,3.14,9.813c-1.237,2.398-3.695,3.917-6.391,3.951
	L274.362,494.931L274.362,494.931z M233.429,271.66c-1.92-1.613-3.021-3.994-3.021-6.502v-54.544l34.133-15.633v103.03
	L233.429,271.66z M285.02,242.348l43.007-24.584l10.428,23.466l-31.709,44.373c-0.205-0.375-0.452-0.708-0.64-1.092L285.02,242.348z
	 M319.674,296.884l29.354-41.104c0.503,0.128,1.024,0.205,1.544,0.23h16.367v42.666h-37.904c-3.191-0.017-6.357-0.623-9.327-1.8
	L319.674,296.884z M427.405,277.335c0,11.784-9.549,21.333-21.333,21.333h-22.067v-42.666h22.067
	C417.857,256.002,427.405,265.55,427.405,277.335z M494.937,85.338h-85.332V17.072h85.332V85.338z M317.685,194.409l3.413,7.68
	l-39.492,22.562v-37.495l16.657-7.629C306.848,180.867,314.161,186.473,317.685,194.409z M298.673,51.205v109.361l-3.55,1.63
	c-0.282,0-0.555-0.06-0.853-0.06h-12.663V93.871c0.026-21.811-7.586-42.939-21.512-59.732h21.512
	C291.036,34.139,298.673,41.776,298.673,51.205z M264.541,93.871v68.266H110.943V93.871c0-42.418,34.38-76.799,76.799-76.799
	S264.541,51.452,264.541,93.871z M93.877,34.139h21.512C101.463,50.932,93.851,72.06,93.877,93.871v68.906
	c-2.876,0.35-5.717,0.87-8.533,1.545l-8.533-3.848V51.205C76.81,41.776,84.456,34.139,93.877,34.139z"/>
<rect x="401.063" y="8.531" style="fill:#4398D1;" width="102.398" height="85.332"/>
<rect x="392.53" y="8.531" style="fill:#C7C7C7;" width="17.066" height="503.458"/>
<rect x="409.596" y="8.531" style="fill:#3E8CC7;" width="17.066" height="85.332"/>
<path style="fill:#C7C7C7;" d="M281.607,25.605H93.877c-14.139,0-25.6,11.46-25.6,25.6v162.131h238.929V51.205
	C307.207,37.066,295.747,25.605,281.607,25.605z"/>
<rect x="68.269" y="76.796" style="fill:#BDBDBD;" width="238.929" height="136.531"/>
<path style="fill:#EBEBEB;" d="M40.118,220.478L9.893,319.779c-4.966,16.333,4.25,33.604,20.582,38.579
	c0.171,0.051,0.333,0.102,0.503,0.145l0,0c16.324,4.668,33.356-4.71,38.152-21l34.013-115.633V170.67
	C73.15,170.695,47.081,191.294,40.118,220.478z"/>
<g>
	<polygon style="fill:#C7C7C7;" points="13.332,308.472 73.261,323.456 78.082,307.073 18.298,292.131 	"/>
	<polygon style="fill:#C7C7C7;" points="26.567,264.927 85.6,281.507 90.421,265.132 31.533,248.595 	"/>
	<path style="fill:#C7C7C7;" d="M103.144,221.869v-0.35l-56.959-16.512c-2.679,4.872-4.719,10.069-6.067,15.471l-0.145,0.486
		l58.486,16.955L103.144,221.869z"/>
</g>
<path style="fill:#EBEBEB;" d="M406.072,247.468h-55.466l-25.122-56.532c-5.478-12.33-17.706-20.266-31.197-20.266h-29.747v68.266
	h8.533l25.429,49.399c5.785,11.562,17.604,18.867,30.532,18.867h77.038c16.495,0,29.866-13.372,29.866-29.866
	C435.938,260.84,422.567,247.468,406.072,247.468z"/>
<g>
	<rect x="366.93" y="247.46" style="fill:#C7C7C7;" width="17.066" height="59.732"/>
	<path style="fill:#C7C7C7;" d="M350.606,247.468l-6.263-14.088l-42.811,59.818c3.413,4.676,7.97,8.405,13.226,10.837l40.481-56.567
		L350.606,247.468L350.606,247.468z"/>
	<polygon style="fill:#C7C7C7;" points="328.54,197.831 273.808,229.335 273.808,238.935 277.724,246.769 335.511,213.515 	"/>
</g>
<rect x="153.601" y="204.794" style="fill:#4398D1;" width="68.266" height="51.199"/>
<path style="fill:#EBEBEB;" d="M273.074,170.67H102.41V93.871c0-47.129,38.203-85.332,85.332-85.332l0,0
	c47.129,0,85.332,38.203,85.332,85.332V170.67z"/>
<circle style="fill:#6CBBC7;" cx="187.733" cy="93.862" r="51.199"/>
<g>
	<path style="fill:#EBEBEB;" d="M102.41,341.333v127.998l-8.32,4.164c-7.816,3.908-10.982,13.414-7.065,21.231
		c2.679,5.359,8.158,8.738,14.139,8.738h69.511V341.333L102.41,341.333L102.41,341.333z"/>
	<rect x="102.402" y="170.661" style="fill:#EBEBEB;" width="170.664" height="170.664"/>
	<path style="fill:#EBEBEB;" d="M273.074,341.333v127.998l8.32,4.164c5.359,2.679,8.747,8.158,8.747,14.148l0,0
		c0,8.738-7.083,15.821-15.821,15.821l0,0h-69.511V341.333"/>
</g>
<g>
	<rect x="204.8" y="401.057" style="fill:#C7C7C7;" width="68.266" height="17.066"/>
	<rect x="204.8" y="366.925" style="fill:#C7C7C7;" width="68.266" height="17.066"/>
	<rect x="204.8" y="435.19" style="fill:#C7C7C7;" width="68.266" height="17.066"/>
	<rect x="102.402" y="401.057" style="fill:#C7C7C7;" width="68.266" height="17.066"/>
	<rect x="102.402" y="366.925" style="fill:#C7C7C7;" width="68.266" height="17.066"/>
	<rect x="102.402" y="435.19" style="fill:#C7C7C7;" width="68.266" height="17.066"/>
</g>
<path style="fill:#87CED9;" d="M187.742,42.672c-21.683,0.017-40.993,13.696-48.221,34.133h96.425
	C228.727,56.368,209.416,42.697,187.742,42.672z"/>
<path style="fill:#E0E0E0;" d="M102.41,333.654v7.68h170.664v-140.55C230.297,277.335,145.187,318.021,102.41,333.654z"/>
<rect x="153.601" y="204.794" style="fill:#87CED9;" width="68.266" height="51.199"/>
<g>
	<path style="fill:#4398D1;" d="M323.496,158.578c-1.963-4.275-7.023-6.161-11.306-4.198l-91.442,41.889h-64.579l-92.918-41.906
		c-4.326-1.869-9.352,0.119-11.221,4.446c-1.826,4.232,0.034,9.148,4.207,11.11l88.839,40.072v55.295
		c0,2.475-1.067,4.821-2.935,6.443l-53.119,46.079c-3.516,3.14-3.823,8.533-0.691,12.049c3.072,3.447,8.337,3.823,11.87,0.845
		l53.119-46.079c5.606-4.864,8.823-11.921,8.823-19.336v-0.751h51.199v0.623c-0.009,7.535,3.311,14.677,9.062,19.541l54.425,46.079
		c3.592,3.046,8.977,2.603,12.032-0.998s2.603-8.977-0.998-12.032l-54.433-46.079c-1.92-1.621-3.021-4.011-3.021-6.519v-54.544
		l88.882-40.72C323.582,167.931,325.459,162.862,323.496,158.578C323.505,158.578,323.496,158.578,323.496,158.578z
		 M162.142,213.336h17.066v8.533c0,4.71,3.823,8.533,8.533,8.533c4.71,0,8.533-3.823,8.533-8.533v-8.533h17.066v34.133h-51.199
		V213.336z"/>
	<path style="fill:#4398D1;" d="M153.609,298.668c-4.71,0-8.533,3.823-8.533,8.533v9.284c0,2.475-1.067,4.821-2.935,6.443
		l-53.119,46.079c-3.516,3.14-3.823,8.533-0.691,12.049c3.072,3.447,8.337,3.823,11.87,0.845l53.119-46.079
		c5.606-4.864,8.823-11.921,8.823-19.336v-9.284C162.142,302.482,158.328,298.668,153.609,298.668z"/>
	<path style="fill:#4398D1;" d="M233.429,322.868c-1.911-1.621-3.021-4.002-3.021-6.511v-9.156c0-4.71-3.823-8.533-8.533-8.533
		c-4.71,0-8.533,3.823-8.533,8.533v9.156c-0.009,7.535,3.311,14.686,9.062,19.541l54.425,46.079
		c3.592,3.046,8.977,2.603,12.032-0.998s2.603-8.977-0.998-12.032L233.429,322.868z"/>
</g>
<g>
	<path id="SVGCleanerId_0_1_" d="M187.742,153.603c32.989,0,59.732-26.743,59.732-59.732s-26.743-59.732-59.732-59.732
		S128.01,60.882,128.01,93.871C128.052,126.843,154.77,153.561,187.742,153.603z M187.742,136.537
		c-23.56,0.009-42.666-19.097-42.674-42.657c0-2.867,0.29-5.734,0.862-8.542h83.625c4.71,23.091-10.18,45.627-33.271,50.337
		C193.476,136.247,190.618,136.537,187.742,136.537z M187.742,51.205c13.354,0.043,25.924,6.357,33.911,17.066h-67.822
		C161.827,57.562,174.388,51.239,187.742,51.205z"/>
</g>
<g>
	<path id="SVGCleanerId_1_1_" d="M28.632,366.711c3.507,0.998,7.134,1.51,10.777,1.51c17.51-0.017,32.921-11.537,37.913-28.313
		l16.554-56.319v30.003l-4.855,4.215c-3.558,3.089-3.934,8.473-0.853,12.032c1.468,1.638,3.516,2.645,5.709,2.79v32.162
		l-4.855,4.215c-3.558,3.089-3.934,8.473-0.853,12.032c1.468,1.638,3.516,2.645,5.709,2.79v80.212l-3.601,1.801
		c-12.04,5.99-16.947,20.616-10.948,32.656c4.122,8.286,12.586,13.517,21.836,13.5h69.511c4.71,0,8.533-3.823,8.533-8.533V349.867
		h17.066v153.597c0,4.71,3.823,8.533,8.533,8.533h69.511c13.448,0,24.354-10.905,24.354-24.354c0-9.224-5.214-17.664-13.465-21.785
		l-3.601-1.8v-80.212c0.239,0.051,0.478,0.094,0.725,0.128c4.71,0,8.533-3.814,8.542-8.525c0-2.509-1.101-4.89-3.021-6.519
		l-6.246-5.265v-30.993c0.239,0.051,0.478,0.094,0.725,0.128c4.71,0,8.533-3.814,8.542-8.525c0-2.509-1.101-4.89-3.021-6.519
		l-6.246-5.291v-38.852l9.267,18.534c7.185,14.498,21.982,23.645,38.16,23.586h63.504v196.263h17.066V315.376
		c21.009-1.835,36.556-20.36,34.713-41.369c-1.613-18.466-16.256-33.1-34.713-34.713V102.404h93.865c4.71,0,8.533-3.823,8.533-8.533
		V8.539c0-4.71-3.823-8.533-8.533-8.533H401.072c-4.71,0-8.533,3.823-8.533,8.533v230.396h-36.394l-22.86-51.455
		c-3.132-6.997-8.098-13.013-14.378-17.408l0.384-0.179c4.241-2.057,6.016-7.159,3.968-11.4c-1.399-2.893-4.301-4.753-7.518-4.813
		V51.205c0-18.85-15.283-34.133-34.133-34.133h-40.063c-32.247-22.732-75.314-22.732-107.561,0H93.877
		c-18.85,0-34.133,15.283-34.133,34.133v102.398c-4.71,0.034-8.499,3.891-8.465,8.601c0.026,3.302,1.954,6.298,4.958,7.68
		l3.507,1.638v4.804c-13.952,10.129-23.816,24.917-27.827,41.693L1.718,317.304c-6.34,20.838,5.41,42.871,26.257,49.211
		C28.197,366.583,28.41,366.643,28.632,366.711z M33.291,350.302c-11.887-3.396-18.764-15.786-15.368-27.673
		c0.034-0.119,0.068-0.239,0.102-0.358l3.567-11.725l43.366,10.846l-4.028,13.704C57.423,346.863,45.118,353.63,33.291,350.302z
		 M84.106,182.497l9.77,4.386v31.999L54.411,207.61c6.579-11.665,17.126-20.574,29.721-25.113H84.106z M264.541,435.199h-51.199
		v-17.066h51.199V435.199z M264.541,401.066h-51.199v-17.066h51.199V401.066z M233.429,322.859c-1.92-1.613-3.021-3.994-3.021-6.502
		v-9.156c0-4.71-3.823-8.533-8.533-8.533c-4.71,0-8.533,3.823-8.533,8.533v9.156c0.026,6.033,2.193,11.861,6.118,16.443h-63.291
		c3.84-4.574,5.956-10.351,5.973-16.324v-9.276c0-4.71-3.823-8.533-8.533-8.533s-8.533,3.823-8.533,8.533v9.276
		c0,2.475-1.075,4.83-2.944,6.451l-11.375,9.873h-19.814v-11.409l42.376-36.77c5.606-4.864,8.823-11.921,8.823-19.345v-0.742h51.199
		v0.623c-0.009,7.526,3.311,14.677,9.062,19.532l42.137,35.686V332.8h-19.379L233.429,322.859z M187.742,230.402
		c4.71,0,8.533-3.823,8.533-8.533v-8.533h17.066v34.133h-51.199v-34.133h17.066v8.533
		C179.209,226.579,183.032,230.402,187.742,230.402z M220.748,196.269h-64.579l-37.836-17.066h139.671L220.748,196.269z
		 M90.191,235.582l-8.081,27.485L39.7,250.95l8.354-27.374L90.191,235.582z M77.297,279.442l-7.518,25.557l-43.195-10.803
		l8.183-26.914L77.297,279.442z M110.943,225.581l0.384-1.306l-0.384-0.111v-29.602l34.133,15.36v55.295
		c0,2.475-1.075,4.83-2.944,6.451l-31.189,27.127V225.581z M110.943,349.867h0.145l-0.145,0.128V349.867z M110.943,418.132h51.199
		v17.066h-51.199C110.943,435.199,110.943,418.132,110.943,418.132z M110.943,401.066v-17.066h51.199v17.066H110.943z
		 M101.164,494.931c-4.028,0-7.287-3.268-7.279-7.296c0-2.756,1.562-5.282,4.028-6.511l8.311-4.156
		c2.893-1.442,4.719-4.403,4.719-7.637v-17.066h51.199v42.666H101.164z M162.142,366.933h-44.68l19.626-17.066h25.053V366.933z
		 M238.941,349.867l20.155,17.066h-45.755v-17.066H238.941z M274.362,494.931h-61.021v-42.666h51.199v17.066
		c-0.017,3.251,1.809,6.229,4.719,7.68l8.311,4.156c3.575,1.843,4.983,6.238,3.14,9.813c-1.237,2.398-3.695,3.917-6.391,3.951
		L274.362,494.931L274.362,494.931z M233.429,271.66c-1.92-1.613-3.021-3.994-3.021-6.502v-54.544l34.133-15.633v103.03
		L233.429,271.66z M285.02,242.348l43.007-24.584l10.428,23.466l-31.709,44.373c-0.205-0.375-0.452-0.708-0.64-1.092L285.02,242.348
		z M319.674,296.884l29.354-41.104c0.503,0.128,1.024,0.205,1.544,0.23h16.367v42.666h-37.904c-3.191-0.017-6.357-0.623-9.327-1.8
		L319.674,296.884z M427.405,277.335c0,11.784-9.549,21.333-21.333,21.333h-22.067v-42.666h22.067
		C417.857,256.002,427.405,265.55,427.405,277.335z M494.937,85.338h-85.332V17.072h85.332V85.338z M317.685,194.409l3.413,7.68
		l-39.492,22.562v-37.495l16.657-7.629C306.848,180.867,314.161,186.473,317.685,194.409z M298.673,51.205v109.361l-3.55,1.63
		c-0.282,0-0.555-0.06-0.853-0.06h-12.663V93.871c0.026-21.811-7.586-42.939-21.512-59.732h21.512
		C291.036,34.139,298.673,41.776,298.673,51.205z M264.541,93.871v68.266H110.943V93.871c0-42.418,34.38-76.799,76.799-76.799
		S264.541,51.452,264.541,93.871z M93.877,34.139h21.512C101.463,50.932,93.851,72.06,93.877,93.871v68.906
		c-2.876,0.35-5.717,0.87-8.533,1.545l-8.533-3.848V51.205C76.81,41.776,84.456,34.139,93.877,34.139z"/>
</g>
<g>
</g>
<g>
</g>
<g>
</g>
<g>
</g>
<g>
</g>
<g>
</g>
<g>
</g>
<g>
</g>
<g>
</g>
<g>
</g>
<g>
</g>
<g>
</g>
<g>
</g>
<g>
</g>
<g>
</g>
</svg>
