<svg xmlns="http://www.w3.org/2000/svg" height="714pt" version="1.1" viewBox="-48 0 714 714.38085" width="714pt">
<g id="surface1">
<path d="M 474.167969 559.40625 C 461.464844 559.445312 451.140625 549.167969 451.101562 536.464844 C 451.0625 523.761719 461.335938 513.433594 474.039062 513.394531 C 486.742188 513.355469 497.070312 523.632812 497.109375 536.335938 C 497.109375 536.355469 497.109375 536.382812 497.109375 536.402344 C 497.070312 549.066406 486.835938 559.332031 474.167969 559.40625 Z M 474.167969 559.40625 " style=" stroke:none;fill-rule:nonzero;fill:rgb(90.980392%,90.980392%,90.980392%);fill-opacity:1;" />
<path d="M 490.613281 536.402344 C 490.613281 545.519531 483.222656 552.90625 474.105469 552.90625 C 464.988281 552.90625 457.601562 545.519531 457.601562 536.402344 C 457.601562 527.285156 464.988281 519.894531 474.105469 519.894531 C 474.125 519.894531 474.152344 519.894531 474.171875 519.894531 C 483.261719 519.933594 490.613281 527.308594 490.613281 536.402344 Z M 490.613281 536.402344 " style=" stroke:none;fill-rule:nonzero;fill:rgb(90.980392%,90.980392%,90.980392%);fill-opacity:1;" />
<path d="M 278.171875 568.699219 L 290.066406 523.207031 C 290.378906 522.125 290.078125 520.953125 289.285156 520.152344 L 280.449219 510.992188 L 292.859375 490.128906 L 307.027344 509.625 C 307.636719 510.445312 308.605469 510.925781 309.625 510.925781 C 310.652344 510.9375 311.621094 510.449219 312.226562 509.625 L 325.9375 490.84375 L 337.960938 511.121094 L 329.121094 519.894531 C 328.316406 520.71875 327.996094 521.894531 328.277344 523.011719 L 340.429688 569.542969 L 309.238281 626.015625 Z M 278.171875 568.699219 " style=" stroke:none;fill-rule:nonzero;fill:rgb(29.803922%,27.45098%,26.666667%);fill-opacity:1;" />
<path d="M 333.476562 568.375 L 309.234375 612.433594 L 284.929688 567.855469 L 296.238281 524.574219 C 297.140625 521.289062 296.226562 517.777344 293.835938 515.34375 L 288.441406 509.753906 L 293.3125 501.566406 L 301.695312 513.003906 C 304.882812 517.347656 310.976562 518.289062 315.324219 515.105469 C 316.128906 514.511719 316.839844 513.804688 317.421875 513.003906 L 325.285156 502.21875 L 329.703125 509.691406 L 324.375 515.085938 C 322.132812 517.59375 321.328125 521.070312 322.230469 524.3125 Z M 333.476562 568.375 " style=" stroke:none;fill-rule:nonzero;fill:rgb(29.803922%,27.45098%,26.666667%);fill-opacity:1;" />
<path d="M 196.421875 419.035156 L 204.21875 416.828125 C 214.941406 413.773438 223.714844 411.433594 229.175781 409.9375 L 233.464844 408.832031 L 288.636719 484.023438 L 273.625 509.496094 C 272.875 510.769531 273.058594 512.386719 274.078125 513.460938 L 283.242188 523.078125 L 273.492188 560.378906 Z M 196.421875 419.035156 " style=" stroke:none;fill-rule:nonzero;fill:rgb(18.823529%,58.823529%,87.45098%);fill-opacity:1;" />
<path d="M 269.398438 517.945312 L 275.898438 524.960938 L 271.21875 542.898438 L 206.039062 423.066406 C 216.695312 420.011719 225.535156 417.671875 230.863281 416.242188 L 280.902344 484.414062 L 267.90625 506.183594 C 265.710938 509.996094 266.320312 514.804688 269.398438 517.945312 Z M 269.398438 517.945312 " style=" stroke:none;fill-rule:nonzero;fill:rgb(18.823529%,58.823529%,87.45098%);fill-opacity:1;" />
<path d="M 335.230469 522.816406 L 344.328125 513.394531 C 345.386719 512.347656 345.601562 510.71875 344.847656 509.429688 L 330.03125 484.476562 L 384.945312 408.769531 L 391.898438 410.652344 C 397.421875 412.148438 405.285156 414.226562 414.511719 417.152344 L 422.308594 419.425781 L 344.976562 560.898438 Z M 335.230469 522.816406 " style=" stroke:none;fill-rule:nonzero;fill:rgb(18.823529%,58.823529%,87.45098%);fill-opacity:1;" />
<path d="M 412.757812 423.195312 L 347.125 543.417969 L 342.25 524.769531 L 348.746094 518.269531 C 351.878906 515.125 352.492188 510.261719 350.242188 506.441406 L 337.828125 484.929688 L 387.609375 415.914062 C 393.132812 417.734375 401.972656 420.074219 412.757812 423.195312 Z M 412.757812 423.195312 " style=" stroke:none;fill-rule:nonzero;fill:rgb(18.823529%,58.823529%,87.45098%);fill-opacity:1;" />
<path d="M 237.753906 404.089844 L 237.753906 374.585938 L 246.980469 378.941406 C 261.863281 386.109375 278.160156 389.855469 294.679688 389.921875 L 324.636719 389.921875 C 340.710938 389.894531 356.578125 386.394531 371.167969 379.652344 L 380.71875 375.105469 L 380.71875 404.089844 L 324.507812 480.902344 L 323.859375 481.421875 C 323.511719 481.726562 323.246094 482.105469 323.078125 482.527344 L 323.078125 483.175781 L 310.082031 501.308594 Z M 237.753906 404.089844 " style=" stroke:none;fill-rule:nonzero;fill:rgb(90.196078%,66.27451%,39.215686%);fill-opacity:1;" />
<path d="M 374.222656 385.242188 L 374.222656 402.007812 L 320.023438 476.742188 C 318.886719 477.710938 317.996094 478.933594 317.425781 480.316406 L 309.625 490.648438 L 244.25 401.945312 L 244.25 384.789062 C 259.992188 392.359375 277.21875 396.328125 294.679688 396.421875 L 324.636719 396.421875 C 341.78125 396.335938 358.699219 392.523438 374.222656 385.242188 Z M 374.222656 385.242188 " style=" stroke:none;fill-rule:nonzero;fill:rgb(90.196078%,66.27451%,39.215686%);fill-opacity:1;" />
<path d="M 189.144531 201.855469 C 189.164062 201.613281 189.164062 201.378906 189.144531 201.140625 L 189.144531 200.296875 C 188.648438 193.171875 185.035156 186.628906 179.265625 182.421875 L 176.730469 180.472656 L 176.730469 160.394531 C 176.730469 153.246094 176.730469 89.300781 216.761719 48.226562 C 239.378906 25.09375 270.246094 13.007812 309.238281 13.007812 C 327.398438 12.71875 345.464844 15.78125 362.527344 22.039062 L 363.304688 22.039062 C 392.261719 31.78125 419.394531 46.304688 443.5625 64.996094 L 449.347656 69.738281 L 443.886719 74.808594 C 438.578125 79.726562 434.085938 85.445312 430.566406 91.769531 C 430.148438 92.632812 430.148438 93.632812 430.566406 94.496094 C 438.199219 115.675781 442.121094 138.011719 442.132812 160.523438 L 442.132812 180.667969 L 439.664062 182.617188 C 434.277344 186.921875 430.949219 193.289062 430.5 200.164062 L 430.5 201.464844 C 430.480469 201.703125 430.480469 201.9375 430.5 202.179688 L 430.5 256.507812 L 419.710938 245.914062 L 417.375 244.160156 L 417.375 243.117188 C 408.015625 230.121094 409.707031 205.882812 410.03125 202.566406 L 410.03125 155.972656 C 410.042969 154.867188 409.476562 153.828125 408.535156 153.242188 C 407.523438 152.691406 406.300781 152.691406 405.285156 153.242188 C 388.054688 162.277344 369.136719 167.632812 349.722656 168.96875 L 337.375 169.554688 L 343.875 159.027344 C 346.667969 154.53125 349.230469 149.882812 351.542969 145.121094 L 352.0625 144.015625 C 352.355469 142.820312 351.960938 141.566406 351.023438 140.765625 C 350.425781 140.214844 349.632812 139.910156 348.8125 139.921875 C 348.195312 139.921875 347.59375 140.078125 347.058594 140.375 C 322.863281 153.765625 295.550781 160.488281 267.90625 159.871094 C 249.367188 159.957031 230.910156 157.46875 213.058594 152.464844 L 212.410156 152.464844 C 211.6875 152.46875 210.984375 152.699219 210.394531 153.113281 C 209.621094 153.757812 209.171875 154.707031 209.160156 155.714844 L 209.160156 201.660156 C 209.160156 202.308594 212.082031 231.160156 200.582031 244.484375 L 189.144531 257.480469 C 189.144531 257.480469 189.144531 201.855469 189.144531 201.855469 Z M 189.144531 201.855469 " style=" stroke:none;fill-rule:nonzero;fill:rgb(29.803922%,27.45098%,26.666667%);fill-opacity:1;" />
<path d="M 424.847656 88.78125 C 423.441406 91.339844 423.273438 94.402344 424.390625 97.097656 C 431.761719 117.476562 435.515625 138.980469 435.503906 160.652344 L 435.503906 177.679688 C 428.652344 183.105469 424.429688 191.183594 423.871094 199.90625 C 423.804688 200.554688 423.804688 201.203125 423.871094 201.855469 L 423.871094 240.847656 C 415.683594 231.8125 415.875 209.914062 416.59375 202.960938 C 416.59375 202.632812 416.59375 202.246094 416.59375 201.921875 L 416.59375 155.976562 C 416.59375 152.609375 414.84375 149.484375 411.980469 147.722656 C 409.101562 145.960938 405.527344 145.785156 402.492188 147.265625 C 386.042969 155.96875 367.957031 161.148438 349.398438 162.472656 C 352.433594 157.554688 355.214844 152.480469 357.714844 147.265625 C 359.917969 142.316406 357.691406 136.519531 352.746094 134.308594 C 349.910156 133.050781 346.648438 133.199219 343.9375 134.726562 C 285.972656 168.191406 216.046875 146.683594 215.332031 146.421875 C 210.257812 144.628906 204.6875 147.289062 202.894531 152.363281 C 202.511719 153.441406 202.324219 154.574219 202.335938 155.714844 L 202.335938 201.660156 C 202.304688 202.003906 202.304688 202.355469 202.335938 202.699219 C 203.050781 209.589844 203.179688 231.035156 195.253906 240.261719 L 195.253906 201.855469 C 195.316406 201.207031 195.316406 200.554688 195.253906 199.90625 C 194.699219 190.96875 190.289062 182.714844 183.164062 177.289062 L 183.164062 160.394531 C 183.164062 159.746094 181.605469 93.71875 221.375 52.777344 C 242.757812 30.941406 272.261719 19.503906 309.238281 19.503906 L 309.691406 19.503906 C 326.90625 19.25 344.015625 22.164062 360.1875 28.082031 L 361.09375 28.082031 C 389.277344 37.714844 415.675781 51.941406 439.207031 70.195312 C 433.46875 75.597656 428.628906 81.871094 424.847656 88.78125 Z M 424.847656 88.78125 " style=" stroke:none;fill-rule:nonzero;fill:rgb(29.803922%,27.45098%,26.666667%);fill-opacity:1;" />
<path d="M 454.609375 248.125 C 444.691406 248.085938 436.671875 240.039062 436.671875 230.121094 L 436.671875 201.851562 C 436.660156 191.949219 444.6875 183.910156 454.589844 183.898438 C 464.492188 183.882812 472.53125 191.910156 472.542969 201.8125 C 472.542969 201.828125 472.542969 201.839844 472.542969 201.851562 L 472.542969 230.121094 C 472.546875 240.039062 464.527344 248.089844 454.609375 248.125 Z M 454.609375 248.125 " style=" stroke:none;fill-rule:nonzero;fill:rgb(98.823529%,75.294118%,50.980392%);fill-opacity:1;" />
<path d="M 466.046875 201.855469 L 466.046875 230.125 C 466.054688 236.441406 460.9375 241.566406 454.621094 241.574219 C 448.304688 241.582031 443.179688 236.464844 443.171875 230.148438 C 443.171875 230.136719 443.171875 230.128906 443.171875 230.117188 L 443.171875 201.847656 C 443.164062 195.53125 448.28125 190.402344 454.597656 190.394531 C 460.914062 190.390625 466.039062 195.503906 466.046875 201.820312 C 466.046875 201.835938 466.046875 201.847656 466.046875 201.855469 Z M 466.046875 201.855469 " style=" stroke:none;fill-rule:nonzero;fill:rgb(98.823529%,75.294118%,50.980392%);fill-opacity:1;" />
<path d="M 164.707031 248.125 C 154.792969 248.085938 146.773438 240.039062 146.773438 230.121094 L 146.773438 201.851562 C 146.773438 191.949219 154.804688 183.917969 164.707031 183.917969 C 174.613281 183.917969 182.644531 191.949219 182.644531 201.851562 L 182.644531 230.121094 C 182.644531 240.039062 174.625 248.089844 164.707031 248.125 Z M 164.707031 248.125 " style=" stroke:none;fill-rule:nonzero;fill:rgb(98.823529%,75.294118%,50.980392%);fill-opacity:1;" />
<path d="M 176.144531 201.855469 L 176.144531 230.125 C 176.144531 236.441406 171.023438 241.5625 164.707031 241.5625 C 158.390625 241.5625 153.269531 236.441406 153.269531 230.125 L 153.269531 201.855469 C 153.269531 195.539062 158.390625 190.417969 164.707031 190.417969 C 171.027344 190.417969 176.144531 195.539062 176.144531 201.855469 Z M 176.144531 201.855469 " style=" stroke:none;fill-rule:nonzero;fill:rgb(98.823529%,75.294118%,50.980392%);fill-opacity:1;" />
<path d="M 294.679688 383.425781 C 236.324219 383.351562 189.070312 335.984375 189.144531 277.628906 C 189.144531 277.609375 189.144531 277.582031 189.144531 277.5625 L 189.144531 258.066406 L 193.820312 256.703125 C 198.253906 255.429688 202.230469 252.902344 205.257812 249.425781 C 218.257812 234.800781 216.175781 205.300781 215.851562 201.984375 L 215.851562 160.394531 L 223.714844 162.085938 C 238.328125 165.171875 253.226562 166.738281 268.164062 166.761719 C 286.179688 166.886719 304.101562 164.253906 321.324219 158.964844 L 339.066406 153.375 L 328.734375 168.972656 C 327.726562 170.414062 328.074219 172.398438 329.511719 173.40625 C 329.734375 173.558594 329.972656 173.683594 330.226562 173.78125 C 335.523438 175.425781 341.058594 176.171875 346.601562 175.992188 C 363.117188 175.523438 379.382812 171.859375 394.496094 165.203125 L 403.464844 161.566406 L 403.464844 201.464844 C 403.140625 205.363281 400.734375 234.867188 413.929688 249.488281 C 417.066406 252.933594 421.128906 255.417969 425.625 256.636719 L 430.304688 258.003906 L 430.304688 277.496094 C 430.445312 335.855469 383.253906 383.28125 324.898438 383.425781 C 324.8125 383.425781 324.722656 383.425781 324.636719 383.425781 Z M 294.679688 383.425781 " style=" stroke:none;fill-rule:nonzero;fill:rgb(98.823529%,75.294118%,50.980392%);fill-opacity:1;" />
<path d="M 423.675781 262.8125 L 423.675781 277.5625 C 423.789062 332.332031 379.472656 376.816406 324.703125 376.925781 C 324.683594 376.925781 324.65625 376.925781 324.636719 376.925781 L 294.679688 376.925781 C 239.910156 376.855469 195.570312 332.398438 195.640625 277.628906 C 195.640625 277.609375 195.640625 277.582031 195.640625 277.5625 L 195.640625 262.679688 C 201.191406 261.03125 206.152344 257.828125 209.9375 253.453125 C 224.820312 237.011719 222.9375 206.597656 222.15625 201.074219 L 222.15625 168.453125 C 255.539062 175.835938 290.242188 174.714844 323.078125 165.203125 C 320.078125 169.628906 321.226562 175.644531 325.644531 178.65625 C 326.320312 179.117188 327.050781 179.484375 327.824219 179.757812 C 330.617188 180.796875 354.207031 188.46875 396.773438 171.050781 L 396.773438 201.464844 C 396.253906 206.988281 394.109375 237.402344 408.925781 253.84375 C 412.886719 258.171875 418.003906 261.285156 423.675781 262.8125 Z M 423.675781 262.8125 " style=" stroke:none;fill-rule:nonzero;fill:rgb(98.823529%,75.294118%,50.980392%);fill-opacity:1;" />
<path d="M 12.773438 713.746094 L 32.851562 568.046875 C 34.800781 555.050781 45.847656 489.675781 77.628906 466.410156 C 91.792969 456.078125 117.984375 444.507812 155.609375 431.902344 L 164.382812 428.914062 L 163.992188 438.335938 C 163.992188 444.378906 163.992188 451.332031 163.992188 459.78125 C 163.992188 462.121094 163.992188 464.136719 163.992188 466.28125 L 163.992188 471.867188 L 158.46875 472.714844 C 130.453125 477.3125 109.789062 501.378906 109.46875 529.769531 L 109.46875 591.378906 C 109.476562 610.601562 119.015625 628.570312 134.945312 639.335938 C 135.484375 639.6875 136.121094 639.871094 136.765625 639.855469 C 138.597656 639.84375 140.066406 638.347656 140.054688 636.515625 C 140.054688 636.347656 140.039062 636.183594 140.015625 636.023438 C 139.84375 635.144531 139.332031 634.371094 138.585938 633.878906 C 124.445312 624.351562 115.949219 608.429688 115.90625 591.378906 L 115.90625 529.578125 C 114.898438 501.242188 137.050781 477.449219 165.382812 476.445312 C 193.71875 475.4375 217.511719 497.589844 218.515625 525.921875 C 218.5625 527.136719 218.5625 528.359375 218.515625 529.574219 L 218.515625 591.375 C 218.570312 608.453125 210.082031 624.425781 195.902344 633.941406 L 194.601562 634.785156 L 193.042969 634.785156 C 191.417969 635.015625 190.203125 636.390625 190.183594 638.035156 C 190.183594 639.828125 191.636719 641.285156 193.433594 641.285156 C 195.253906 641.296875 197.039062 640.777344 198.566406 639.789062 C 214.941406 629.140625 224.808594 610.910156 224.757812 591.375 L 224.757812 529.574219 C 224.464844 501.136719 203.757812 477.035156 175.691406 472.453125 L 170.167969 471.609375 L 170.167969 466.019531 C 170.167969 464.199219 170.167969 462.316406 170.167969 460.496094 L 170.167969 457.765625 C 169.886719 448.746094 170.128906 439.71875 170.882812 430.730469 L 171.402344 426.574219 L 189.921875 420.984375 L 271.15625 569.738281 L 271.15625 570.515625 C 271.285156 570.933594 271.507812 571.308594 271.804688 571.621094 L 272.390625 572.207031 L 305.660156 633.226562 L 305.660156 633.746094 C 305.796875 634.128906 305.972656 634.5 306.179688 634.851562 C 306.878906 635.761719 307.960938 636.292969 309.105469 636.28125 C 310.261719 636.289062 311.335938 635.664062 311.902344 634.65625 C 311.9375 634.394531 311.9375 634.136719 311.902344 633.875 L 311.902344 632.835938 L 428.746094 420.984375 L 433.8125 422.542969 C 441.417969 424.882812 449.476562 427.417969 457.664062 430.148438 L 460.132812 430.992188 L 461.367188 433.265625 C 467.625 445.054688 470.90625 458.195312 470.921875 471.542969 L 470.921875 506.894531 L 466.175781 508.257812 C 450.523438 512.660156 441.398438 528.910156 445.796875 544.558594 C 450.199219 560.214844 466.449219 569.339844 482.097656 564.9375 C 497.753906 560.539062 506.878906 544.289062 502.476562 528.640625 C 499.703125 518.753906 491.976562 511.035156 482.097656 508.257812 L 477.421875 506.894531 L 477.421875 471.542969 C 477.398438 463.09375 476.179688 454.691406 473.78125 446.589844 L 470.140625 434.175781 L 482.230469 438.660156 C 502.808594 445.417969 522.460938 454.746094 540.714844 466.410156 C 572.753906 489.738281 583.605469 554.984375 585.492188 567.785156 L 605.636719 713.746094 Z M 504.582031 599.175781 L 504.582031 597.484375 L 428.03125 597.484375 L 428.03125 599.175781 Z M 504.582031 599.175781 " style=" stroke:none;fill-rule:nonzero;fill:rgb(90.980392%,90.980392%,90.980392%);fill-opacity:1;" />
<path d="M 579.1875 568.957031 C 579.1875 568.179688 569.308594 495.199219 537.011719 471.480469 C 519.1875 460.21875 500.042969 451.183594 480.019531 444.578125 C 482.59375 453.273438 483.90625 462.285156 483.917969 471.351562 L 483.917969 501.566406 C 503.09375 506.949219 514.277344 526.859375 508.890625 546.039062 C 503.511719 565.214844 483.597656 576.398438 464.421875 571.011719 C 445.246094 565.628906 434.0625 545.71875 439.449219 526.542969 C 442.847656 514.429688 452.316406 504.964844 464.421875 501.566406 L 464.421875 471.546875 C 464.433594 459.261719 461.417969 447.164062 455.648438 436.324219 C 447.523438 433.660156 439.46875 431.125 431.929688 428.785156 L 319.179688 635.246094 C 318.976562 636.253906 318.601562 637.222656 318.074219 638.105469 C 316.328125 641.074219 313.144531 642.90625 309.691406 642.914062 C 306.167969 642.917969 302.898438 641.101562 301.046875 638.105469 C 300.660156 637.402344 300.328125 636.664062 300.074219 635.894531 L 267.582031 576.109375 C 266.523438 574.988281 265.761719 573.632812 265.371094 572.144531 L 186.933594 428.914062 L 177.511719 431.773438 C 176.769531 441.328125 176.554688 450.917969 176.859375 460.5 C 176.859375 462.382812 176.859375 464.332031 176.859375 466.21875 C 208.085938 471.128906 231.128906 497.96875 231.253906 529.578125 L 231.253906 591.378906 C 231.320312 613.246094 220.21875 633.640625 201.816406 645.449219 C 199.242188 647.109375 196.238281 647.996094 193.171875 647.980469 C 187.789062 648.308594 183.164062 644.199219 182.839844 638.820312 C 182.515625 633.4375 186.621094 628.8125 192.003906 628.488281 C 204.382812 620.199219 211.796875 606.273438 211.757812 591.378906 L 211.757812 529.578125 C 212.699219 504.832031 193.40625 484.003906 168.660156 483.0625 C 143.914062 482.117188 123.085938 501.414062 122.144531 526.160156 C 122.097656 527.296875 122.097656 528.433594 122.144531 529.570312 L 122.144531 591.371094 C 122.082031 606.226562 129.382812 620.148438 141.636719 628.542969 C 146.109375 631.558594 147.285156 637.621094 144.269531 642.09375 C 141.253906 646.566406 135.191406 647.742188 130.71875 644.726562 C 113.199219 632.632812 102.789062 612.660156 102.90625 591.371094 L 102.90625 529.570312 C 102.953125 497.863281 126.09375 470.914062 157.429688 466.082031 C 157.429688 464.195312 157.429688 462.3125 157.429688 460.492188 C 157.429688 451.914062 157.429688 444.441406 157.429688 438.070312 C 127.730469 448.402344 97.382812 460.101562 81.785156 471.667969 C 49.292969 495.195312 39.738281 568.171875 39.609375 569.148438 L 20.503906 714 L 598.875 714 Z M 511.082031 605.675781 L 421.53125 605.675781 L 421.53125 590.988281 L 511.082031 590.988281 Z M 511.082031 605.675781 " style=" stroke:none;fill-rule:nonzero;fill:rgb(90.980392%,90.980392%,90.980392%);fill-opacity:1;" />
<path d="M 617.984375 713.746094 L 598.488281 566.421875 C 598.097656 563.109375 587.570312 484.410156 548.511719 455.949219 C 523.6875 437.816406 469.816406 419.6875 430.890625 408.117188 L 429.003906 407.535156 C 413.730469 402.917969 400.996094 399.605469 393.714844 397.589844 L 393.714844 373.9375 C 424.890625 351.722656 443.425781 315.839844 443.496094 277.5625 L 443.496094 258.847656 C 447.128906 260.335938 451.007812 261.109375 454.933594 261.121094 C 472.023438 261.082031 485.867188 247.222656 485.867188 230.125 L 485.867188 201.855469 C 485.835938 184.9375 472.238281 171.167969 455.324219 170.921875 L 455.324219 160.976562 C 455.402344 138.367188 451.738281 115.902344 444.472656 94.496094 C 448.707031 88.34375 454.011719 82.996094 460.132812 78.707031 C 464.675781 75.8125 466.007812 69.789062 463.117188 65.246094 C 462.691406 64.585938 462.191406 63.972656 461.628906 63.433594 C 426.015625 29.511719 373.183594 12.03125 367.660156 10.210938 C 349.132812 3.257812 329.480469 -0.199219 309.691406 0.0078125 L 309.238281 0.0078125 C 266.738281 0.0078125 232.488281 13.007812 207.46875 39 C 161.980469 85.984375 163.796875 157.664062 163.863281 160.328125 L 163.863281 170.660156 C 147.007812 171.121094 133.625 184.996094 133.777344 201.855469 L 133.777344 230.125 C 133.777344 247.222656 147.617188 261.082031 164.707031 261.121094 C 168.632812 261.113281 172.519531 260.34375 176.148438 258.847656 L 176.148438 277.5625 C 176.121094 315.402344 194.1875 350.976562 224.757812 373.285156 L 224.757812 397.589844 C 197.65625 404.738281 104.726562 430.085938 69.636719 456.078125 C 30.644531 484.542969 20.050781 563.238281 19.660156 566.554688 L 0.164062 713.941406 L 19.660156 713.941406 L 38.765625 569.089844 C 38.765625 568.375 48.644531 495.394531 80.941406 471.609375 C 96.863281 460.042969 127.210938 448.019531 156.976562 438.011719 C 156.976562 444.511719 156.976562 451.855469 156.976562 460.433594 C 156.976562 462.253906 156.976562 464.136719 156.976562 466.023438 C 125.640625 470.859375 102.496094 497.804688 102.453125 529.511719 L 102.453125 591.378906 C 102.453125 612.765625 113.070312 632.753906 130.785156 644.734375 C 135.257812 647.75 141.320312 646.570312 144.335938 642.101562 C 147.351562 637.628906 146.175781 631.566406 141.703125 628.550781 C 129.449219 620.15625 122.148438 606.234375 122.207031 591.378906 L 122.207031 529.578125 C 121.265625 504.832031 140.5625 484.003906 165.308594 483.0625 C 190.054688 482.117188 210.882812 501.414062 211.824219 526.160156 C 211.871094 527.296875 211.871094 528.433594 211.824219 529.570312 L 211.824219 591.375 C 211.941406 606.242188 204.628906 620.1875 192.328125 628.546875 C 186.945312 628.871094 182.839844 633.496094 183.164062 638.878906 C 183.488281 644.257812 188.117188 648.367188 193.496094 648.042969 C 196.566406 648.054688 199.566406 647.171875 202.140625 645.507812 C 220.441406 633.609375 231.417969 613.203125 231.253906 591.375 L 231.253906 529.570312 C 231.207031 497.828125 208.042969 470.851562 176.667969 466.015625 C 176.667969 464.132812 176.667969 462.183594 176.667969 460.296875 C 176.359375 450.71875 176.574219 441.125 177.316406 431.574219 L 186.933594 428.910156 L 265.242188 571.878906 C 265.632812 573.367188 266.390625 574.722656 267.449219 575.839844 L 299.945312 635.628906 C 300.199219 636.394531 300.527344 637.136719 300.917969 637.839844 C 302.769531 640.832031 306.039062 642.652344 309.5625 642.648438 C 313.011719 642.640625 316.195312 640.808594 317.945312 637.839844 C 318.472656 636.953125 318.847656 635.988281 319.050781 634.980469 L 431.929688 428.910156 C 439.46875 431.25 447.527344 433.785156 455.648438 436.449219 C 461.417969 447.289062 464.433594 459.386719 464.421875 471.671875 L 464.421875 501.886719 C 445.316406 507.269531 434.195312 527.121094 439.578125 546.226562 C 444.960938 565.332031 464.8125 576.453125 483.917969 571.070312 C 503.023438 565.691406 514.140625 545.835938 508.761719 526.730469 C 505.371094 514.691406 495.960938 505.28125 483.917969 501.886719 L 483.917969 471.539062 C 483.90625 462.472656 482.59375 453.453125 480.019531 444.765625 C 499.929688 451.398438 518.957031 460.433594 536.6875 471.667969 C 569.179688 495.191406 578.730469 568.171875 578.863281 569.144531 L 597.96875 713.933594 L 617.464844 713.933594 Z M 443.171875 201.855469 C 443.164062 195.539062 448.28125 190.410156 454.597656 190.402344 C 460.914062 190.394531 466.042969 195.511719 466.046875 201.828125 C 466.046875 201.839844 466.046875 201.847656 466.046875 201.859375 L 466.046875 230.128906 C 466.054688 236.445312 460.941406 241.574219 454.625 241.582031 C 448.304688 241.589844 443.179688 236.472656 443.171875 230.15625 C 443.171875 230.144531 443.171875 230.136719 443.171875 230.125 Z M 176.144531 230.125 C 176.144531 236.441406 171.023438 241.5625 164.707031 241.5625 C 158.390625 241.5625 153.269531 236.441406 153.269531 230.125 L 153.269531 201.855469 C 153.269531 195.539062 158.390625 190.417969 164.707031 190.417969 C 171.023438 190.417969 176.144531 195.539062 176.144531 201.855469 Z M 183.359375 177.289062 L 183.359375 160.394531 C 183.359375 159.742188 181.800781 93.71875 221.570312 52.777344 C 242.757812 30.941406 272.257812 19.503906 309.234375 19.503906 L 309.691406 19.503906 C 326.90625 19.25 344.015625 22.160156 360.183594 28.082031 L 361.09375 28.082031 C 389.277344 37.714844 415.675781 51.9375 439.207031 70.195312 C 433.378906 75.574219 428.445312 81.851562 424.585938 88.78125 C 423.179688 91.339844 423.011719 94.402344 424.128906 97.097656 C 431.5 117.476562 435.253906 138.980469 435.242188 160.652344 L 435.242188 177.679688 C 428.390625 183.105469 424.167969 191.183594 423.609375 199.90625 C 423.542969 200.554688 423.542969 201.203125 423.609375 201.855469 L 423.609375 240.847656 C 415.421875 231.8125 415.613281 209.914062 416.332031 202.960938 C 416.332031 202.632812 416.332031 202.246094 416.332031 201.921875 L 416.332031 155.976562 C 416.332031 152.609375 414.582031 149.484375 411.71875 147.722656 C 408.839844 145.960938 405.265625 145.785156 402.230469 147.265625 C 385.859375 155.9375 367.871094 161.109375 349.394531 162.472656 C 352.429688 157.554688 355.210938 152.480469 357.714844 147.265625 C 359.917969 142.316406 357.6875 136.519531 352.742188 134.308594 C 349.910156 133.050781 346.648438 133.199219 343.9375 134.726562 C 285.96875 168.191406 216.046875 146.683594 215.332031 146.421875 C 210.253906 144.628906 204.6875 147.289062 202.894531 152.363281 C 202.507812 153.441406 202.320312 154.574219 202.332031 155.714844 L 202.332031 201.660156 C 202.300781 202.003906 202.300781 202.355469 202.332031 202.699219 C 203.046875 209.589844 203.179688 231.035156 195.25 240.261719 L 195.25 201.855469 C 195.316406 201.207031 195.316406 200.554688 195.25 199.90625 C 194.746094 191 190.410156 182.753906 183.359375 177.289062 Z M 195.640625 277.5625 L 195.640625 262.679688 C 201.191406 261.03125 206.148438 257.828125 209.9375 253.453125 C 224.820312 237.011719 222.933594 206.597656 222.15625 201.074219 L 222.15625 168.453125 C 255.539062 175.835938 290.242188 174.714844 323.078125 165.203125 C 320.074219 169.628906 321.226562 175.644531 325.644531 178.65625 C 326.320312 179.117188 327.046875 179.484375 327.820312 179.757812 C 330.617188 180.796875 354.207031 188.46875 396.773438 171.050781 L 396.773438 201.464844 C 396.253906 206.988281 394.109375 237.402344 408.925781 253.84375 C 412.882812 258.195312 418.003906 261.328125 423.675781 262.875 L 423.675781 277.628906 C 423.75 332.398438 379.410156 376.855469 324.636719 376.925781 L 294.679688 376.925781 C 239.910156 376.855469 195.570312 332.398438 195.640625 277.628906 C 195.640625 277.609375 195.640625 277.589844 195.640625 277.5625 Z M 374.222656 385.242188 L 374.222656 402.007812 L 320.023438 476.742188 C 318.886719 477.710938 317.996094 478.933594 317.425781 480.316406 L 309.625 490.648438 L 244.25 401.945312 L 244.25 384.789062 C 259.992188 392.359375 277.21875 396.328125 294.679688 396.421875 L 324.636719 396.421875 C 341.78125 396.335938 358.699219 392.523438 374.222656 385.242188 Z M 269.398438 517.945312 L 275.898438 524.960938 L 271.21875 542.898438 L 206.039062 423.066406 C 216.695312 420.011719 225.535156 417.671875 230.863281 416.242188 L 280.902344 484.414062 L 267.90625 506.183594 C 265.710938 509.996094 266.320312 514.804688 269.398438 517.945312 Z M 309.238281 612.433594 L 284.933594 567.851562 L 296.238281 524.570312 C 297.144531 521.289062 296.226562 517.773438 293.835938 515.34375 L 288.441406 509.753906 L 293.316406 501.566406 L 301.699219 513.003906 C 304.882812 517.34375 310.980469 518.289062 315.328125 515.101562 C 316.132812 514.511719 316.839844 513.804688 317.425781 513.003906 L 325.289062 502.21875 L 329.707031 509.691406 L 324.378906 515.085938 C 322.136719 517.59375 321.332031 521.070312 322.234375 524.3125 L 333.734375 568.371094 Z M 346.929688 543.417969 L 342.054688 524.769531 L 348.554688 518.269531 C 351.683594 515.125 352.296875 510.261719 350.046875 506.441406 L 337.828125 484.929688 L 387.609375 415.914062 C 393.132812 417.410156 401.96875 419.75 412.757812 422.871094 Z M 490.417969 536.402344 C 490.417969 545.519531 483.019531 552.90625 473.910156 552.90625 C 464.792969 552.90625 457.402344 545.511719 457.402344 536.402344 C 457.402344 527.285156 464.800781 519.894531 473.910156 519.894531 C 473.992188 519.894531 474.078125 519.894531 474.167969 519.894531 C 483.261719 519.933594 490.609375 527.308594 490.609375 536.402344 Z M 490.417969 536.402344 " style=" stroke:none;fill-rule:nonzero;fill:rgb(0%,0%,0%);fill-opacity:1;" />
<path d="M 421.53125 590.988281 L 511.082031 590.988281 L 511.082031 605.675781 L 421.53125 605.675781 Z M 421.53125 590.988281 " style=" stroke:none;fill-rule:nonzero;fill:rgb(0%,0%,0%);fill-opacity:1;" />
</g>
</svg>