<svg xmlns="http://www.w3.org/2000/svg" height="716pt" version="1.1" viewBox="-77 0 716 716.53129" width="716pt">
<g id="surface1">
<path d="M 149.9375 195.121094 C 141.144531 195.121094 133.949219 187.925781 133.949219 179.132812 C 133.949219 170.335938 141.144531 163.140625 149.9375 163.140625 L 407.496094 163.140625 C 416.289062 163.140625 423.484375 170.234375 423.484375 179.132812 C 423.484375 188.027344 416.390625 195.121094 407.496094 195.121094 Z M 149.9375 195.121094 " style=" stroke:none;fill-rule:nonzero;fill:rgb(96.470588%,40.392157%,0.392157%);fill-opacity:1;" />
<path d="M 416.988281 179.132812 C 416.988281 184.328125 412.691406 188.625 407.496094 188.625 L 149.9375 188.625 C 144.742188 188.625 140.445312 184.328125 140.445312 179.132812 C 140.445312 173.933594 144.742188 169.636719 149.9375 169.636719 L 407.496094 169.636719 C 412.691406 169.636719 416.988281 173.933594 416.988281 179.132812 Z M 416.988281 179.132812 " style=" stroke:none;fill-rule:nonzero;fill:rgb(96.470588%,40.392157%,0.392157%);fill-opacity:1;" />
<path d="M 267.375 547.324219 L 258.578125 528.335938 L 280.867188 516.242188 L 302.851562 528.136719 L 293.859375 547.324219 Z M 267.375 547.324219 " style=" stroke:none;fill-rule:nonzero;fill:rgb(5.098039%,37.254902%,50.980392%);fill-opacity:1;" />
<path d="M 294.359375 530.933594 L 289.761719 540.828125 L 271.570312 540.828125 L 267.074219 531.132812 L 280.867188 523.640625 Z M 294.359375 530.933594 " style=" stroke:none;fill-rule:nonzero;fill:rgb(5.098039%,37.254902%,50.980392%);fill-opacity:1;" />
<path d="M 411.992188 284.671875 C 403.195312 284.671875 396.101562 277.578125 396.101562 268.78125 L 396.101562 243.195312 C 396.101562 234.398438 403.195312 227.304688 411.992188 227.304688 C 420.789062 227.304688 427.882812 234.398438 427.882812 243.195312 L 427.882812 268.78125 C 427.882812 277.578125 420.789062 284.671875 411.992188 284.671875 Z M 411.992188 284.671875 " style=" stroke:none;fill-rule:nonzero;fill:rgb(98.823529%,75.294118%,50.980392%);fill-opacity:1;" />
<path d="M 421.386719 243.195312 L 421.386719 268.78125 C 421.386719 273.976562 417.1875 278.175781 411.992188 278.175781 C 406.796875 278.175781 402.597656 273.976562 402.597656 268.78125 L 402.597656 243.195312 C 402.597656 238 406.796875 233.800781 411.992188 233.800781 C 417.1875 233.800781 421.386719 238 421.386719 243.195312 Z M 421.386719 243.195312 " style=" stroke:none;fill-rule:nonzero;fill:rgb(98.823529%,75.294118%,50.980392%);fill-opacity:1;" />
<path d="M 377.511719 278.375 C 370.117188 265.882812 372.015625 244.496094 372.113281 243.59375 L 372.113281 196.523438 L 400.699219 196.523438 L 400.699219 223.707031 L 398.199219 225.707031 C 393.203125 229.601562 390.105469 235.398438 389.703125 241.695312 L 389.703125 298.964844 Z M 377.511719 278.375 " style=" stroke:none;fill-rule:nonzero;fill:rgb(23.137255%,23.529412%,22.352941%);fill-opacity:1;" />
<path d="M 394.203125 203.019531 L 394.203125 220.609375 C 387.804688 225.605469 383.808594 233.101562 383.308594 241.296875 C 383.207031 241.894531 383.207031 242.597656 383.308594 243.296875 L 383.308594 275.378906 C 379.210938 265.683594 377.613281 254.988281 378.710938 244.496094 C 378.710938 244.195312 378.710938 243.894531 378.710938 243.496094 L 378.710938 203.117188 C 378.710938 203.019531 394.203125 203.019531 394.203125 203.019531 Z M 394.203125 203.019531 " style=" stroke:none;fill-rule:nonzero;fill:rgb(23.137255%,23.529412%,22.352941%);fill-opacity:1;" />
<path d="M 172.226562 243.195312 L 172.226562 241.695312 C 171.828125 235.398438 168.628906 229.503906 163.53125 225.707031 L 161.03125 223.707031 L 161.03125 196.523438 L 189.515625 196.523438 L 189.515625 243.894531 C 189.515625 246.894531 191.117188 266.484375 184.121094 278.375 L 172.027344 298.964844 Z M 172.226562 243.195312 " style=" stroke:none;fill-rule:nonzero;fill:rgb(23.137255%,23.529412%,22.352941%);fill-opacity:1;" />
<path d="M 178.722656 275.277344 L 178.722656 243.394531 C 178.824219 242.796875 178.824219 242.097656 178.722656 241.394531 C 178.222656 233.300781 174.226562 225.707031 167.828125 220.707031 L 167.828125 203.117188 L 183.019531 203.117188 L 183.019531 244.292969 C 184.320312 254.890625 182.820312 265.484375 178.722656 275.277344 Z M 178.722656 275.277344 " style=" stroke:none;fill-rule:nonzero;fill:rgb(23.137255%,23.529412%,22.352941%);fill-opacity:1;" />
<path d="M 149.839844 284.671875 C 141.042969 284.671875 133.949219 277.578125 133.949219 268.78125 L 133.949219 243.195312 C 133.949219 234.398438 141.042969 227.304688 149.839844 227.304688 C 158.632812 227.304688 165.730469 234.398438 165.730469 243.195312 L 165.730469 268.78125 C 165.730469 277.578125 158.632812 284.671875 149.839844 284.671875 Z M 149.839844 284.671875 " style=" stroke:none;fill-rule:nonzero;fill:rgb(98.823529%,75.294118%,50.980392%);fill-opacity:1;" />
<path d="M 159.234375 243.195312 L 159.234375 268.78125 C 159.234375 273.976562 155.035156 278.175781 149.839844 278.175781 C 144.640625 278.175781 140.445312 273.976562 140.445312 268.78125 L 140.445312 243.195312 C 140.445312 238 144.640625 233.800781 149.839844 233.800781 C 155.035156 233.800781 159.234375 238 159.234375 243.195312 Z M 159.234375 243.195312 " style=" stroke:none;fill-rule:nonzero;fill:rgb(98.823529%,75.294118%,50.980392%);fill-opacity:1;" />
<path d="M 162.632812 163.539062 L 162.632812 138.753906 C 162.632812 136.355469 163.03125 79.886719 198.8125 43.808594 C 203.707031 38.910156 209.207031 34.613281 215.003906 30.8125 L 217.199219 29.414062 L 219.800781 29.914062 C 244.984375 34.910156 248.183594 68.292969 248.484375 72.089844 L 248.484375 125.160156 C 248.484375 126.960938 249.984375 128.460938 251.78125 128.460938 C 253.582031 128.460938 255.078125 126.960938 255.078125 125.160156 L 255.078125 71.589844 C 254.28125 56.101562 247.785156 41.40625 236.691406 30.515625 L 227.796875 23.019531 L 238.890625 19.421875 C 266.375 10.925781 295.855469 10.925781 323.34375 19.421875 L 334.4375 23.019531 L 325.640625 30.515625 C 313.246094 41.308594 307.75 59.699219 306.75 72.589844 L 306.75 124.5625 C 306.75 126.359375 308.25 127.859375 310.050781 127.859375 C 311.847656 127.859375 313.347656 126.359375 313.347656 124.5625 L 313.347656 72.589844 C 313.347656 72.191406 315.445312 34.613281 342.03125 29.414062 L 344.53125 28.914062 L 346.730469 30.3125 C 352.625 34.011719 358.023438 38.410156 363.019531 43.308594 C 399.097656 79.6875 399.5 136.253906 399.5 138.753906 L 399.5 163.539062 Z M 162.632812 163.539062 " style=" stroke:none;fill-rule:nonzero;fill:rgb(96.470588%,40.392157%,0.392157%);fill-opacity:1;" />
<path d="M 392.703125 138.855469 L 392.703125 157.144531 L 169.128906 157.144531 L 169.128906 138.855469 C 169.128906 137.953125 169.128906 82.984375 203.410156 48.503906 C 208.007812 43.90625 213.101562 39.808594 218.5 36.210938 C 239.488281 40.410156 241.886719 71.589844 241.988281 72.492188 L 241.988281 125.160156 C 241.988281 130.558594 246.386719 134.957031 251.78125 134.957031 C 257.179688 134.957031 261.578125 130.558594 261.578125 125.160156 L 261.578125 71.589844 C 260.777344 58.597656 255.078125 37.710938 240.886719 25.617188 C 267.074219 17.523438 295.058594 17.523438 321.242188 25.617188 C 306.851562 37.808594 301.253906 58.796875 300.453125 72.191406 L 300.453125 124.863281 C 300.453125 130.257812 304.851562 134.65625 310.25 134.65625 C 315.644531 134.65625 320.042969 130.257812 320.042969 124.863281 L 320.042969 72.890625 C 320.042969 72.890625 322.34375 40.410156 343.53125 36.109375 C 349.027344 39.609375 354.125 43.707031 358.722656 48.304688 C 392.601562 82.785156 392.703125 137.753906 392.703125 138.855469 Z M 392.703125 138.855469 " style=" stroke:none;fill-rule:nonzero;fill:rgb(96.470588%,40.392157%,0.392157%);fill-opacity:1;" />
<path d="M 246.683594 694.84375 L 268.273438 553.820312 L 293.160156 553.820312 L 314.546875 694.84375 Z M 246.683594 694.84375 " style=" stroke:none;fill-rule:nonzero;fill:rgb(5.098039%,37.254902%,50.980392%);fill-opacity:1;" />
<path d="M 307.050781 688.347656 L 254.28125 688.347656 L 273.871094 560.316406 L 287.5625 560.316406 Z M 307.050781 688.347656 " style=" stroke:none;fill-rule:nonzero;fill:rgb(5.098039%,37.254902%,50.980392%);fill-opacity:1;" />
<path d="M 285.863281 511.546875 L 349.027344 430.691406 L 353.226562 431.789062 L 368.515625 435.988281 L 376.011719 438.085938 L 329.4375 535.230469 Z M 285.863281 511.546875 " style=" stroke:none;fill-rule:nonzero;fill:rgb(79.607843%,79.607843%,79.607843%);fill-opacity:1;" />
<path d="M 366.71875 442.183594 L 326.441406 526.039062 L 295.757812 509.246094 L 351.625 437.785156 Z M 366.71875 442.183594 " style=" stroke:none;fill-rule:nonzero;fill:rgb(79.607843%,79.607843%,79.607843%);fill-opacity:1;" />
<path d="M 185.71875 437.785156 L 193.214844 435.6875 L 208.007812 431.691406 L 212.105469 430.691406 L 275.96875 511.445312 L 232.492188 535.230469 Z M 185.71875 437.785156 " style=" stroke:none;fill-rule:nonzero;fill:rgb(79.607843%,79.607843%,79.607843%);fill-opacity:1;" />
<path d="M 266.074219 509.246094 L 235.492188 525.835938 L 195.011719 442.085938 L 209.605469 437.785156 Z M 266.074219 509.246094 " style=" stroke:none;fill-rule:nonzero;fill:rgb(79.607843%,79.607843%,79.607843%);fill-opacity:1;" />
<path d="M 216.5 425.894531 L 216.5 399.90625 L 225.695312 404.105469 C 238.789062 410.101562 253.082031 413.300781 267.574219 413.300781 L 294.558594 413.300781 C 308.648438 413.300781 322.640625 410.300781 335.535156 404.605469 L 344.730469 400.609375 L 344.730469 425.992188 L 280.867188 507.449219 Z M 216.5 425.894531 " style=" stroke:none;fill-rule:nonzero;fill:rgb(90.196078%,66.27451%,39.215686%);fill-opacity:1;" />
<path d="M 338.035156 410.402344 L 338.035156 423.394531 L 280.566406 496.753906 L 222.699219 423.59375 L 222.699219 410.101562 C 236.789062 416.5 252.082031 419.796875 267.574219 419.695312 L 294.558594 419.695312 C 309.550781 419.695312 324.339844 416.5 338.035156 410.402344 Z M 338.035156 410.402344 " style=" stroke:none;fill-rule:nonzero;fill:rgb(90.196078%,66.27451%,39.215686%);fill-opacity:1;" />
<path d="M 267.472656 406.703125 C 214.902344 406.703125 172.324219 364.128906 172.226562 311.558594 L 172.226562 294.066406 L 176.722656 292.667969 C 180.523438 291.46875 183.917969 289.167969 186.617188 286.171875 C 198.210938 273.179688 196.710938 247.992188 196.3125 243.09375 L 196.3125 196.320312 L 365.617188 196.320312 L 365.617188 242.796875 C 365.117188 248.292969 363.621094 273.578125 375.210938 286.570312 C 377.8125 289.570312 381.308594 291.867188 385.105469 293.066406 L 389.605469 294.46875 L 389.605469 312.058594 C 389.304688 364.425781 346.828125 406.703125 294.457031 406.804688 Z M 267.472656 406.703125 " style=" stroke:none;fill-rule:nonzero;fill:rgb(98.823529%,75.294118%,50.980392%);fill-opacity:1;" />
<path d="M 383.109375 298.765625 L 383.109375 311.757812 C 382.910156 360.628906 343.332031 400.109375 294.457031 400.207031 L 267.472656 400.207031 C 218.5 400.207031 178.824219 360.53125 178.722656 311.558594 L 178.722656 298.566406 C 183.71875 297.066406 188.21875 294.265625 191.714844 290.46875 C 205.007812 275.277344 203.109375 247.792969 202.507812 242.796875 L 202.507812 203.019531 L 359.023438 203.019531 L 359.023438 242.796875 C 358.523438 247.992188 356.722656 275.777344 370.316406 290.867188 C 373.8125 294.566406 378.210938 297.363281 383.109375 298.765625 Z M 383.109375 298.765625 " style=" stroke:none;fill-rule:nonzero;fill:rgb(98.823529%,75.294118%,50.980392%);fill-opacity:1;" />
<path d="M 118.855469 716.03125 L 118.855469 709.535156 C 118.855469 582.804688 83.476562 515.644531 68.382812 492.554688 L 65.1875 487.660156 L 69.582031 483.960938 C 70.082031 483.460938 70.582031 482.960938 71.183594 482.5625 C 92.070312 467.371094 138.746094 451.679688 174.023438 441.183594 L 179.320312 439.585938 L 227.996094 540.730469 C 228.394531 541.527344 229.09375 542.226562 229.992188 542.527344 L 230.894531 542.527344 C 231.394531 542.527344 231.992188 542.429688 232.492188 542.128906 L 252.78125 531.132812 L 261.976562 550.625 L 239.789062 697.542969 C 239.589844 699.339844 240.886719 700.941406 242.585938 701.140625 C 242.6875 701.140625 242.886719 701.140625 242.988281 701.140625 L 318.144531 701.140625 C 319.042969 701.140625 319.945312 700.738281 320.644531 700.039062 C 321.242188 699.339844 321.542969 698.441406 321.441406 697.542969 L 299.253906 550.824219 L 308.550781 530.835938 L 329.136719 541.929688 C 329.636719 542.226562 330.136719 542.328125 330.738281 542.328125 C 332.035156 542.429688 333.234375 541.628906 333.734375 540.429688 L 382.410156 439.785156 L 387.707031 441.382812 C 422.785156 451.777344 468.960938 467.371094 489.847656 482.5625 L 495.945312 487.859375 L 492.847656 492.554688 C 477.554688 515.644531 442.273438 582.90625 442.273438 709.433594 L 442.273438 715.929688 C 442.375 716.03125 118.855469 716.03125 118.855469 716.03125 Z M 411.890625 618.585938 L 411.890625 614.886719 L 351.527344 614.886719 L 351.527344 618.585938 Z M 411.890625 618.585938 " style=" stroke:none;fill-rule:nonzero;fill:rgb(90.980392%,90.980392%,90.980392%);fill-opacity:1;" />
<path d="M 485.949219 487.859375 C 465.761719 473.167969 419.6875 457.675781 385.707031 447.679688 L 339.53125 543.628906 C 338.332031 546.027344 336.234375 547.824219 333.734375 548.726562 C 331.136719 549.625 328.339844 549.425781 325.941406 548.226562 L 311.347656 540.328125 L 305.851562 552.222656 L 327.640625 696.941406 C 328.039062 699.742188 327.238281 702.640625 325.339844 704.738281 C 323.441406 706.835938 320.84375 708.035156 318.042969 708.035156 L 242.988281 708.035156 C 237.589844 708.035156 233.191406 703.738281 233.191406 698.339844 C 233.191406 697.839844 233.191406 697.441406 233.292969 696.941406 L 255.179688 552.222656 L 249.683594 540.53125 L 235.492188 548.226562 C 234.089844 549.023438 232.492188 549.425781 230.792969 549.425781 C 229.792969 549.425781 228.792969 549.222656 227.796875 548.925781 C 225.195312 548.125 222.996094 546.125 221.796875 543.628906 L 175.722656 447.480469 C 141.742188 457.574219 95.167969 473.46875 74.78125 487.859375 C 74.28125 487.859375 73.980469 488.660156 73.582031 488.957031 C 87.773438 510.546875 125.152344 579.507812 125.152344 709.535156 L 435.578125 709.535156 C 435.578125 579.609375 472.859375 510.847656 487.148438 489.15625 Z M 418.390625 624.78125 L 345.03125 624.78125 L 345.03125 608.089844 L 418.390625 608.089844 Z M 418.390625 624.78125 " style=" stroke:none;fill-rule:nonzero;fill:rgb(90.980392%,90.980392%,90.980392%);fill-opacity:1;" />
<path d="M 448.871094 716.03125 L 448.871094 709.535156 C 448.871094 591.699219 481.355469 524.738281 495.144531 501.550781 L 500.644531 492.355469 L 506.339844 501.449219 C 520.832031 524.9375 528.328125 559.519531 530.226562 574.511719 L 541.519531 709.636719 Z M 448.871094 716.03125 " style=" stroke:none;fill-rule:nonzero;fill:rgb(79.607843%,79.607843%,79.607843%);fill-opacity:1;" />
<path d="M 541.421875 709.535156 L 455.367188 709.535156 C 455.367188 594.300781 486.351562 528.9375 500.84375 504.75 C 512.734375 526.636719 520.53125 550.523438 523.828125 575.210938 Z M 541.421875 709.535156 " style=" stroke:none;fill-rule:nonzero;fill:rgb(79.607843%,79.607843%,79.607843%);fill-opacity:1;" />
<path d="M 435.878906 706.335938 L 455.367188 706.335938 L 455.367188 712.832031 L 435.878906 712.832031 Z M 435.878906 706.335938 " style=" stroke:none;fill-rule:nonzero;fill:rgb(0%,0%,0%);fill-opacity:1;" />
<path d="M 19.613281 709.535156 L 30.90625 574.210938 C 34.304688 548.523438 42.5 523.738281 54.992188 501.050781 L 60.6875 491.957031 L 66.183594 501.351562 C 80.078125 524.636719 112.558594 591.699219 112.558594 709.335938 L 112.558594 715.832031 Z M 19.613281 709.535156 " style=" stroke:none;fill-rule:nonzero;fill:rgb(79.607843%,79.607843%,79.607843%);fill-opacity:1;" />
<path d="M 105.863281 709.535156 L 19.613281 709.535156 L 37.402344 575.210938 C 40.699219 550.421875 48.59375 526.539062 60.488281 504.648438 C 74.878906 528.734375 105.863281 594.097656 105.863281 709.535156 Z M 105.863281 709.535156 " style=" stroke:none;fill-rule:nonzero;fill:rgb(79.607843%,79.607843%,79.607843%);fill-opacity:1;" />
<path d="M 345.03125 608.089844 L 418.390625 608.089844 L 418.390625 624.78125 L 345.03125 624.78125 Z M 345.03125 608.089844 " style=" stroke:none;fill-rule:nonzero;fill:rgb(0%,0%,0%);fill-opacity:1;" />
<path d="M 543.019531 572.710938 C 542.621094 569.714844 533.125 498.152344 497.542969 472.167969 C 473.65625 454.777344 420.585938 437.6875 385.105469 427.09375 C 384.007812 426.59375 382.910156 426.292969 381.710938 426.191406 C 371.816406 423.292969 363.320312 421.097656 357.722656 419.695312 L 357.722656 399.207031 C 386.007812 378.917969 402.699219 346.335938 402.796875 311.65625 L 402.796875 295.964844 C 405.796875 297.066406 408.992188 297.664062 412.191406 297.765625 C 428.082031 297.566406 440.777344 284.671875 440.875 268.882812 L 440.875 243.296875 C 440.875 228.003906 428.882812 215.410156 413.691406 214.511719 L 413.691406 202.816406 C 426.183594 201.117188 434.980469 189.625 433.28125 177.132812 C 431.78125 166.339844 422.984375 158.144531 412.191406 157.34375 L 412.191406 138.953125 C 412.191406 136.355469 412.191406 75.289062 372.3125 35.011719 C 367.515625 30.214844 362.320312 25.816406 356.722656 22.019531 C 352.527344 19.121094 351.726562 18.722656 347.929688 16.320312 C 327.339844 5.027344 304.253906 -0.46875 280.867188 0.03125 C 257.578125 -0.46875 234.589844 5.027344 214.101562 16.023438 C 210.003906 18.421875 208.804688 19.21875 205.308594 21.71875 C 199.710938 25.617188 194.414062 29.914062 189.617188 34.8125 C 149.539062 75.390625 149.738281 136.453125 149.738281 138.753906 L 149.738281 157.242188 C 137.144531 158.144531 127.652344 169.035156 128.449219 181.628906 C 129.148438 192.421875 137.445312 201.320312 148.238281 202.71875 L 148.238281 214.410156 C 132.949219 215.3125 121.054688 227.902344 121.054688 243.195312 L 121.054688 268.78125 C 121.054688 284.773438 134.046875 297.664062 149.9375 297.664062 C 153.136719 297.664062 156.335938 297.066406 159.332031 295.867188 L 159.332031 311.558594 C 159.332031 346.039062 175.722656 378.417969 203.507812 398.707031 L 203.507812 419.597656 C 178.023438 426.09375 95.167969 449.28125 63.585938 472.265625 C 27.90625 498.253906 18.113281 569.714844 18.113281 572.8125 L 0.222656 709.734375 L 19.710938 709.734375 L 37.5 575.410156 C 40.800781 550.625 48.59375 526.636719 60.589844 504.75 C 74.980469 528.835938 106.0625 594.199219 106.0625 709.636719 L 106.0625 716.132812 L 125.550781 716.132812 L 125.550781 703.136719 C 124.351562 577.507812 88.074219 510.246094 74.082031 489.058594 C 74.480469 489.058594 74.878906 488.257812 75.28125 487.957031 C 95.667969 473.167969 142.242188 457.574219 176.222656 447.582031 L 222.097656 543.726562 C 223.296875 546.125 225.398438 547.925781 227.894531 548.824219 C 228.894531 549.125 229.894531 549.324219 230.894531 549.324219 C 232.59375 549.425781 234.292969 549.125 235.789062 548.324219 L 249.984375 540.628906 L 255.480469 552.324219 L 233.59375 697.042969 C 232.792969 702.339844 236.589844 707.335938 241.886719 708.035156 C 242.386719 708.136719 242.785156 708.136719 243.285156 708.136719 L 318.445312 708.136719 C 321.242188 708.136719 323.941406 706.9375 325.742188 704.835938 C 327.640625 702.738281 328.4375 699.839844 328.039062 697.042969 L 306.25 552.121094 L 311.75 540.230469 L 326.140625 548.324219 C 328.539062 549.625 331.238281 549.824219 333.835938 549.023438 C 336.335938 548.226562 338.433594 546.324219 339.632812 543.925781 L 386.007812 447.78125 C 419.886719 457.875 465.960938 473.367188 486.25 487.957031 L 487.648438 489.15625 C 473.65625 510.445312 437.476562 577.609375 436.277344 703.039062 L 436.277344 716.03125 L 455.769531 716.03125 L 455.769531 709.535156 C 455.769531 594.300781 486.75 528.9375 501.242188 504.75 C 513.136719 526.636719 520.929688 550.523438 524.230469 575.210938 L 542.019531 709.535156 L 561.507812 709.535156 Z M 394.203125 220.609375 C 387.804688 225.605469 383.808594 233.101562 383.308594 241.296875 C 383.207031 241.894531 383.207031 242.597656 383.308594 243.296875 L 383.308594 275.378906 C 379.210938 265.683594 377.613281 254.988281 378.710938 244.496094 C 378.710938 244.195312 378.710938 243.894531 378.710938 243.496094 L 378.710938 203.117188 L 394.300781 203.117188 Z M 421.386719 243.195312 L 421.386719 268.78125 C 421.386719 273.976562 417.1875 278.175781 411.992188 278.175781 C 406.796875 278.175781 402.597656 273.976562 402.597656 268.78125 L 402.597656 243.195312 C 402.597656 238 406.796875 233.800781 411.992188 233.800781 C 417.1875 233.800781 421.386719 238 421.386719 243.195312 Z M 169.128906 138.855469 C 169.128906 137.953125 169.128906 82.984375 203.410156 48.503906 C 208.007812 43.90625 213.101562 39.808594 218.5 36.210938 C 239.488281 40.410156 241.886719 71.589844 241.988281 72.492188 L 241.988281 125.160156 C 241.988281 130.558594 246.386719 134.957031 251.78125 134.957031 C 257.179688 134.957031 261.578125 130.558594 261.578125 125.160156 L 261.578125 71.589844 C 260.777344 58.597656 255.078125 37.710938 240.886719 25.617188 C 267.074219 17.523438 295.058594 17.523438 321.242188 25.617188 C 306.851562 37.808594 301.253906 58.796875 300.453125 72.191406 L 300.453125 124.863281 C 300.453125 130.257812 304.851562 134.65625 310.25 134.65625 C 315.644531 134.65625 320.042969 130.257812 320.042969 124.863281 L 320.042969 72.890625 C 320.042969 72.890625 322.34375 40.410156 343.53125 36.109375 C 349.027344 39.609375 354.125 43.707031 358.722656 48.304688 C 393.003906 82.886719 393.003906 137.753906 393.003906 138.855469 L 393.003906 157.144531 L 169.128906 157.144531 Z M 147.539062 180.230469 C 147.539062 178.332031 149.140625 176.832031 151.039062 176.832031 L 410.492188 176.832031 C 412.390625 177.132812 413.792969 178.832031 413.492188 180.832031 C 413.292969 182.429688 412.09375 183.628906 410.492188 183.828125 L 150.539062 183.828125 C 148.738281 183.527344 147.441406 181.929688 147.539062 180.128906 Z M 159.234375 268.78125 C 159.234375 273.976562 155.035156 278.175781 149.839844 278.175781 C 144.640625 278.175781 140.445312 273.976562 140.445312 268.78125 L 140.445312 243.195312 C 140.445312 238 144.640625 233.800781 149.839844 233.800781 C 155.035156 233.800781 159.234375 238 159.234375 243.195312 Z M 167.628906 220.609375 L 167.628906 203.019531 L 183.019531 203.019531 L 183.019531 244.195312 C 184.320312 254.789062 182.820312 265.484375 178.722656 275.277344 L 178.722656 243.394531 C 178.824219 242.796875 178.824219 242.097656 178.722656 241.394531 C 178.222656 233.199219 174.226562 225.605469 167.628906 220.609375 Z M 178.722656 311.558594 L 178.722656 298.566406 C 183.71875 297.066406 188.21875 294.265625 191.714844 290.46875 C 205.007812 275.378906 203.109375 247.894531 202.507812 242.796875 L 202.507812 203.019531 L 359.023438 203.019531 L 359.023438 242.796875 C 358.523438 247.992188 356.722656 275.777344 370.316406 290.867188 C 373.8125 294.667969 378.3125 297.464844 383.308594 298.964844 L 383.308594 311.957031 C 383.007812 360.929688 343.230469 400.40625 294.359375 400.308594 L 267.472656 400.308594 C 218.601562 400.207031 178.824219 360.53125 178.722656 311.558594 Z M 280.566406 496.855469 L 222.699219 423.695312 L 222.699219 410.203125 C 236.789062 416.597656 252.082031 419.898438 267.574219 419.796875 L 294.558594 419.796875 C 309.550781 419.796875 324.441406 416.597656 338.132812 410.503906 L 338.132812 423.496094 Z M 294.058594 530.933594 L 289.460938 540.828125 L 271.269531 540.828125 L 266.773438 531.035156 L 280.566406 523.539062 Z M 235.089844 526.039062 L 194.914062 441.984375 L 209.503906 437.6875 L 265.972656 509.148438 Z M 306.550781 688.546875 L 254.480469 688.546875 L 273.96875 560.519531 L 287.660156 560.519531 Z M 326.039062 526.039062 L 295.65625 509.246094 L 351.527344 437.785156 L 366.71875 441.984375 Z M 326.039062 526.039062 " style=" stroke:none;fill-rule:nonzero;fill:rgb(0%,0%,0%);fill-opacity:1;" />
<path d="M 105.863281 706.335938 L 125.351562 706.335938 L 125.351562 712.832031 L 105.863281 712.832031 Z M 105.863281 706.335938 " style=" stroke:none;fill-rule:nonzero;fill:rgb(0%,0%,0%);fill-opacity:1;" />
</g>
</svg>