<svg id="Layer_1_1_" enable-background="new 0 0 64 64" height="512" viewBox="0 0 64 64" width="512" xmlns="http://www.w3.org/2000/svg"><path d="m13.103 25.836c-2.761 0-8.103-1.075-8.103-3.836 0-2.761 2.239-5 5-5l9.018 2.122c5.25 1.235 10.714 1.235 15.964 0l9.018-2.122c2.761 0 5 2.239 5 5 0 2.761-6.35 3.836-9.112 3.836" fill="#5e4b24"/><path d="m35 41-4 8v13h15l-2-18-5-2-4-3z" fill="#1a326e"/><path d="m37.249 54.208c1.899-3.385 3.18-8.329 3.844-11.371l-2.093-.837-4-3v2l-4 8v2l4.775 3.527c.487.36 1.177.21 1.474-.319z" fill="#162a5c"/><path d="m19 41 4 8v13h-15l2-18 5-2 4-3z" fill="#1a326e"/><path d="m19 41 4 8-5 2.179c-2-3-3-9.089-3-9.089l4-3.09z" fill="#1a326e"/><path d="m41.385 17.615-3.385.797v6.588c0 1.413-.27 2.76-.756 4h.006c3.022-2.574 4.6-6.461 4.227-10.413z" fill="#2b2210"/><path d="m35 41-4 8 5 2.179c2-3 3-9.089 3-9.089l-4-3.09z" fill="#1a326e"/><path d="m60.176 21.369c-1.697-.547-3.548.189-4.536 1.672l-2.64 3.959s8.368-2.67 8-5c-.045-.283-.373-.486-.824-.631z" fill="#7fb556"/><path d="m34.982 19.122c-5.25 1.235-10.714 1.235-15.964 0l-3.018-.71v6.588c0 4.662 2.905 8.637 7 10.239 1.241.485 2.587.761 4 .761s2.759-.276 4-.761c4.095-1.601 7-5.576 7-10.239v-6.588z" fill="#fce0b9"/><path d="m40 13.809-1.394-3.357-2.105-5.07c-.292-1.388-1.517-2.382-2.935-2.382h-13.129c-1.42 0-2.646.996-2.936 2.385l-3.501 8.385-4 3.23 1.63.384 4.37 1.028 3.018.71c5.25 1.235 10.714 1.235 15.964 0l3.018-.71 3.385-.796 2.615-.616z" fill="#806631"/><path d="m50 33h-1-2.098c-2.378 0-4.231 2.062-3.977 4.426l.588 5.485 1.651 15.408c.163 1.524 1.45 2.68 2.983 2.68h.609c1.533 0 2.82-1.156 2.983-2.68l2.239-20.893c.252-2.364-1.601-4.426-3.978-4.426z" fill="#fca947"/><path d="m57 8c-.395-1.186-2-1-4 3-.835 1.67-1.67 5.779-2.359 10l.359-1s7.061-8.818 6-12z" fill="#7fb556"/><path d="m46.513 45.911-.588-5.485c-.253-2.364 1.6-4.426 3.977-4.426h2.098 1c.302 0 .594.034.876.097-.41-1.754-1.963-3.097-3.876-3.097h-1-2.098c-2.378 0-4.231 2.062-3.977 4.426l.588 5.485 1.651 15.408c.163 1.518 1.44 2.67 2.966 2.679z" fill="#f98600"/><path d="m23 50h8v12h-8z" fill="#d0382a"/><path d="m31 35.239c-1.241.485-2.587.761-4 .761s-2.759-.276-4-.761v3.761h-4v2l4 8v1h8v-1l4-8v-2h-4z" fill="#fce0b9"/><path d="m19.018 19.122-3.018-.71v5.266c3.157.834 6.934 1.322 11 1.322s7.843-.488 11-1.322v-5.266l-3.018.71c-5.25 1.235-10.714 1.235-15.964 0z" fill="#f5cba1"/><path d="m23 50h2v12h-2z" fill="#a62d21"/><path d="m29 50h2v12h-2z" fill="#a62d21"/><path d="m19 39h4v-3.761c-4.095-1.601-7-5.576-7-10.239v-6.588l-4.37-1.028c-.135 1.934.078 3.918.672 5.85l2.662 8.651h-4.964c-1.657 0-3 1.343-3 3 0 .02.005.038.006.058-.001.019-.006.037-.006.057 0 1.385.944 2.54 2.22 2.885h-.22c-3.314 0-6 2.686-6 6 0 3.151 2.43 5.73 5.518 5.976 0-.001 1.482 6.139 5.482 6.139h2c4 .115 7-2 7-6.115 0-3.314-3.686-6-7-6l-1 .115v-2z" fill="#2b2210"/><path d="m10.518 49.86c-3.088-.246-5.518-2.824-5.518-5.975 0-3.314 2.686-6 6-6h.22c-1.276-.345-2.22-1.5-2.22-2.885 0-.02.005-.038.006-.058 0-.02-.006-.038-.006-.058 0-1.657 1.343-3 3-3h-2c-1.657 0-3 1.343-3 3 0 .02.005.038.006.058-.001.02-.006.038-.006.058 0 1.385.944 2.54 2.22 2.885h-.22c-3.314 0-6 2.686-6 6 0 3.151 2.43 5.73 5.518 5.976 0-.001 1.482 6.139 5.482 6.139h2c-4 0-5.482-6.14-5.482-6.14z" fill="#3d3017"/><path d="m18.437 4.952h13.129c1.419 0 2.643.994 2.936 2.382l2.105 5.07 1.393 3.357 2.566 2.047.819-.193 2.615-.615-4-3.191-1.394-3.357-2.105-5.07c-.292-1.388-1.517-2.382-2.935-2.382h-13.129c-1.313 0-2.45.856-2.845 2.083.27-.079.552-.131.845-.131z" fill="#5e4b24"/><path d="m22 25.75c-.965 0-1.75-.785-1.75-1.75s.785-1.75 1.75-1.75 1.75.785 1.75 1.75-.785 1.75-1.75 1.75zm0-2c-.138 0-.25.112-.25.25 0 .275.5.275.5 0 0-.138-.112-.25-.25-.25z"/><path d="m32 25.75c-.965 0-1.75-.785-1.75-1.75s.785-1.75 1.75-1.75 1.75.785 1.75 1.75-.785 1.75-1.75 1.75zm0-2c-.138 0-.25.112-.25.25 0 .275.5.275.5 0 0-.138-.112-.25-.25-.25z"/><path d="m27 32.75c-2.067 0-3.75-1.683-3.75-3.75h1.5c0 1.24 1.01 2.25 2.25 2.25s2.25-1.01 2.25-2.25h1.5c0 2.067-1.683 3.75-3.75 3.75z"/><path d="m8.069 50.931c.016.117.032.234.054.35l-1.117 10.615 1.988.209.785-7.458c1.073 1.203 2.551 2.032 4.221 2.273v5.08h2v-5h1c1.958 0 3.728-.81 5-2.111v7.111h2v-11h6v11h2v-11.474l3.601 1.569c.441.191.963.041 1.231-.362 1.615-2.423 2.587-6.581 2.968-8.483l2.798.51 1.572 14.665c.218 2.039 1.928 3.575 3.976 3.575h.608c2.05 0 3.76-1.536 3.978-3.574l2.238-20.894c.151-1.408-.305-2.82-1.251-3.874-.764-.849-1.796-1.388-2.909-1.572l2.828-4.241c2.908-.956 8.785-3.244 8.349-6.001-.104-.658-.61-1.138-1.504-1.426-2.081-.674-4.415.179-5.677 2.068l-4.306 6.461c.328-2.525.754-5.532 1.228-8.365l.053.043c1.236-1.544 7.342-9.422 6.168-12.941-.257-.772-.851-1.265-1.588-1.317-1.381-.084-2.816 1.312-4.255 4.187-.843 1.687-1.67 5.624-2.359 9.732-.706-2.359-2.826-4.107-5.372-4.265l-3.549-2.831-3.367-8.11c-.425-1.791-2.046-3.08-3.894-3.08h-13.127c-1.849 0-3.47 1.29-3.894 3.082l-3.369 8.068-3.552 2.869c-3.133.196-5.623 2.8-5.623 5.981 0 3.592 5.572 4.648 8.357 4.81l1.29 4.19h-3.647c-2.206 0-4 1.794-4 4 0 .887.3 1.699.79 2.363-2.779.929-4.79 3.55-4.79 6.637 0 3.543 2.649 6.473 6.069 6.931zm48.402-27.335c.595-.892 1.569-1.407 2.553-1.407.284 0 .569.043.846.133.027.009.053.018.076.025-.351.605-2.053 1.661-4.411 2.654zm-2.576-12.149c1.091-2.182 1.87-2.828 2.189-3.014.313 1.422-1.491 4.766-3.551 7.797.448-2.145.913-3.886 1.362-4.783zm-23.79 37.106c-.068.136-.105.289-.105.447h-6-.08c-.231-1.603-1.004-3.03-2.131-4.091l.056-.025-1.845-4.099v-.785h3c.553 0 1-.447 1-1v-2.395c.961.249 1.962.395 3 .395s2.039-.146 3-.395v2.395c0 .553.447 1 1 1h3v.764zm-13.914-5.553c-.037-.181-.071-.352-.098-.491l1.908-1.474c.004.13.034.257.087.375l.84 1.866c-.613-.176-1.259-.276-1.928-.276zm.809-23.325 1.788.421c5.373 1.264 11.051 1.264 16.424 0l1.788-.421v5.325c0 5.514-4.486 10-10 10s-10-4.486-10-10zm23.487-.821c.181 2.306-.363 4.577-1.507 6.526.005-.127.02-.252.02-.38v-5.796zm-4.895 31.056-3.226-1.406 3.528-7.057c.064-.128.1-.269.104-.412l1.908 1.474c-.269 1.404-1.052 5.04-2.314 7.401zm17.39-12.591-2.238 20.894c-.109 1.018-.964 1.787-1.989 1.787h-.608c-1.024 0-1.879-.769-1.988-1.787l-.988-9.213h3.829v-2h-4v.406l-1.081-10.087c-.092-.857.176-1.684.752-2.324.576-.641 1.369-.995 2.231-.995h3.098c.862 0 1.655.354 2.231.995s.843 1.467.751 2.324zm-3.821-13.295c-.504 3.424-.88 6.506-1.052 7.976h-1.206c-1.417 0-2.772.604-3.719 1.658-.947 1.053-1.404 2.465-1.253 3.874l.445 4.156-2.957-.539-3.807-2.94c-.179-.139-.395-.2-.611-.2v-.009h-3v-2.105c2.74-1.263 4.928-3.52 6.087-6.315.918-.814 1.697-1.746 2.344-2.759 2.115-.093 6.815-.718 8.729-2.797zm-1.161-2.024c0 1.314-3.458 2.417-6.464 2.739.801-1.95 1.139-4.089.935-6.245l-.01-.104 1.647-.388c2.157.058 3.892 1.829 3.892 3.998zm-9.243-8.576-7.283.971c-2.968.395-5.978.396-8.947 0l-7.297-.973.784-1.878 6.249.833c1.571.209 3.154.314 4.737.314s3.166-.105 4.737-.314l6.239-.832zm-20.333-7.653c.024-.059.043-.119.056-.181.193-.921 1.016-1.59 1.958-1.59h13.128c.94 0 1.764.668 1.957 1.588.013.061.031.12.055.178l1.606 3.868-5.709.761c-2.968.395-5.978.395-8.947 0l-5.715-.762zm-4.658 9.473 8.497 1.133c1.571.209 3.154.314 4.737.314s3.166-.105 4.737-.314l8.462-1.128 1.566 1.249-7.013 1.65c-5.072 1.193-10.434 1.193-15.506 0l-7.029-1.654zm-7.766 6.756c0-2.169 1.735-3.94 3.891-3.998l.722.17c-.036 1.816.198 3.615.734 5.356l.378 1.228c-2.658-.282-5.725-1.311-5.725-2.756zm3 17h1 1 4v-2h-4-1c-1.103 0-2-.897-2-2s.897-2 2-2h5c.317 0 .616-.15.805-.406.188-.255.244-.585.151-.888l-2.697-8.767c-.431-1.4-.646-2.842-.658-4.3l2.4.565v5.796c0 4.831 2.876 8.994 7 10.895v2.105h-3v.009c-.217 0-.432.061-.611.2l-4 3.089c-.291.225-.435.591-.375.953 0 0 .047.283.138.749h-.153v2h3c2.757 0 5 2.243 5 5s-2.243 5-5 5h-2c-2.359 0-4.33-1.648-4.853-3.849l.016-.151h4.837v-2h-6c-2.757 0-5-2.243-5-5s2.243-5 5-5z"/><path d="m38 56h2v6h-2z"/><path d="m45 37h3v2h-3z"/><path d="m48 41h4v2h-4z"/><path d="m48 51h2v2h-2z"/></svg>