<svg id="Capa_1" enable-background="new 0 0 512 512" height="512" viewBox="0 0 512 512" width="512" xmlns="http://www.w3.org/2000/svg"><g><g><path clip-rule="evenodd" d="m331.629 269.125 49.494 4.847 4.365 14.939-4.365 14.599-49.494 4.847-3.402-20.665z" fill="#ddeafb" fill-rule="evenodd"/><path clip-rule="evenodd" d="m227.993 269.125h74.014v41.896h-74.014z" fill="#e6646e" fill-rule="evenodd"/><path clip-rule="evenodd" d="m299.371 313.091v-48.671c0-3.203 2.636-5.811 5.839-5.811h20.608c3.203 0 5.811 2.608 5.811 5.811v48.671c0 3.203-2.608 5.812-5.811 5.812h-20.608c-3.203-.001-5.839-2.609-5.839-5.812z" fill="#cbe2ff" fill-rule="evenodd"/><path clip-rule="evenodd" d="m58.338 451.083c-27.95 0-50.826-22.876-50.826-50.854l6.293-21.94-6.293-21.742v-29.112l4.847-47.679-4.847-52.754c0-27.95 22.875-50.826 50.826-50.826 27.979 0 50.854 22.876 50.854 50.826v173.228c0 27.977-22.876 50.853-50.854 50.853z" fill="#e6646e" fill-rule="evenodd"/><path clip-rule="evenodd" d="m58.338 451.083c-5.046 0-9.921-.737-14.542-2.126 20.92-6.321 36.284-25.796 36.284-48.728v-173.228c0-22.904-15.364-42.407-36.284-48.7 4.621-1.389 9.496-2.126 14.542-2.126 27.979 0 50.854 22.876 50.854 50.826v173.228c0 27.978-22.876 50.854-50.854 50.854z" fill="#dc4655" fill-rule="evenodd"/><path clip-rule="evenodd" d="m7.512 356.547h31.408c10.687 0 19.418 8.759 19.418 19.417v4.875c0 10.658-8.731 19.389-19.418 19.389h-31.408z" fill="#b3e59f" fill-rule="evenodd"/><path clip-rule="evenodd" d="m7.512 227.001h31.408c10.687 0 19.418 8.759 19.418 19.418v61.597c0 10.687-8.731 19.418-19.418 19.418h-31.408z" fill="#ffe17d" fill-rule="evenodd"/><path clip-rule="evenodd" d="m116.902 219.348h106.896l13.153-47.764c.964-3.544-.511-6.095-4.281-6.775l-124.64-22.423c-3.345-.595-5.358 1.446-4.734 4.791z" fill="#3f6d8e" fill-rule="evenodd"/><path clip-rule="evenodd" d="m194.686 219.348h29.112l13.153-47.764c.964-3.544-.511-6.095-4.281-6.775l-21.912-3.94c-5.357 19.502-10.715 38.977-16.072 58.479z" fill="#365e7d" fill-rule="evenodd"/><path clip-rule="evenodd" d="m163.278 183.773c38.155 0 69.364 31.21 69.364 69.365v246.503c0 2.693-2.183 4.875-4.847 4.875h-129.063c-2.665 0-4.847-2.183-4.847-4.875v-246.503c0-38.155 31.21-69.365 69.393-69.365z" fill="#5c90b9" fill-rule="evenodd"/><path clip-rule="evenodd" d="m163.278 183.773c38.155 0 69.364 31.21 69.364 69.365v246.503c0 2.693-2.183 4.875-4.847 4.875h-29.112c2.665 0 4.847-2.183 4.847-4.875 0-82.149 0-164.326 0-246.503 0-33.166-23.585-61.088-54.823-67.834 4.706-.993 9.553-1.531 14.571-1.531z" fill="#4a80aa" fill-rule="evenodd"/><path d="m137.539 249.736c-3.713-15.166 5.556-30.473 20.693-34.186 15.166-3.741 30.444 5.528 34.186 20.665l16.441 66.388c1.162 3.94 3.628 5.868 7.37 5.754h83.141c15.647 0 28.347 12.7 28.347 28.318 0 15.648-12.7 28.319-28.347 28.319h-111.176c-12.699.028-24.265-8.675-27.411-21.572z" fill="#3f6d8e"/><path d="m150.408 218.753c2.381-1.417 4.989-2.523 7.824-3.204 15.166-3.741 30.444 5.528 34.186 20.665l16.441 66.388c1.105 3.742 3.373 5.669 6.803 5.754h-28.545c-3.77.113-6.208-1.814-7.37-5.754l-16.441-66.388c-1.871-7.597-6.662-13.719-12.898-17.461zm119.85 89.604h29.112c15.647 0 28.347 12.7 28.347 28.318 0 15.648-12.7 28.319-28.347 28.319h-29.112c15.647 0 28.318-12.671 28.318-28.319.001-15.618-12.67-28.318-28.318-28.318z" fill="#365e7d"/><g clip-rule="evenodd" fill-rule="evenodd"><path d="m93.885 393.539h138.757v30.133h-138.757z" fill="#ffe17d"/><path d="m93.885 423.672h138.757l17.32 40.649c1.474 3.515 0 5.471-3.628 5.471h-166.141c-3.516 0-5.018-2.183-3.629-5.471z" fill="#3f6d8e"/><path d="m203.53 423.672h29.112l17.32 40.649c1.474 3.515 0 5.471-3.628 5.471h-29.112c3.628 0 5.102-1.956 3.6-5.471z" fill="#365e7d"/><path d="m170.62 7.513c34.668 0 63.298 25.908 67.55 59.415l-69.563 6.293-65.538-6.293c4.28-33.507 32.882-59.415 67.551-59.415z" fill="#ffe17d"/><path d="m170.62 7.513c34.668 0 63.298 25.908 67.55 59.415h-29.112c-3.657-28.687-25.144-51.79-52.98-57.856 4.677-1.021 9.552-1.559 14.542-1.559z" fill="#ffc369"/><path d="m230.176 98.902-59.131-6.803-61.428 6.803c-.709 4.309-1.049 8.731-1.049 13.238 0 11.282 2.239 21.969 6.207 31.465l99.554 17.915c10.46-12.87 16.895-30.246 16.895-49.38.001-4.507-.368-8.929-1.048-13.238z" fill="#f1d0a5"/><path d="m100.518 66.927h140.204c8.816 0 16.016 7.2 16.016 15.988s-7.2 15.987-16.016 15.987h-140.204c-8.787 0-15.987-7.2-15.987-15.987s7.199-15.988 15.987-15.988z" fill="#ffc369"/><path d="m211.609 66.927h29.112c8.816 0 16.016 7.2 16.016 15.988s-7.2 15.987-16.016 15.987h-29.112c8.788 0 15.987-7.2 15.987-15.987s-7.2-15.988-15.987-15.988z" fill="#ffaa5f"/><path d="m230.176 98.902h-29.14c.709 4.309 1.049 8.731 1.049 13.238 0 16.952-5.017 32.486-13.437 44.76l25.682 4.621c10.46-12.87 16.895-30.246 16.895-49.38 0-4.508-.369-8.93-1.049-13.239z" fill="#f1b986"/><path d="m232.642 308.357h38.41v56.637h-38.41z" fill="#ffe17d"/><path d="m203.53 393.539h29.112v30.133h-29.112z" fill="#ffc369"/><path d="m216.116 7.513c12.189 0 22.054 26.589 22.054 59.415h-44.08c0-32.826 9.866-59.415 22.026-59.415z" fill="#e6646e"/></g><path d="m168.522 33.081c3.997 0 7.256 3.26 7.256 7.285s-3.26 7.286-7.256 7.286h-17.065c-4.025 0-7.285-3.26-7.285-7.286s3.26-7.285 7.285-7.285z" fill="#ffaa5f"/><path clip-rule="evenodd" d="m29.226 246.419v61.597c0 10.687-8.731 19.418-19.417 19.418h29.111c10.687 0 19.418-8.731 19.418-19.418v-61.597c0-10.659-8.731-19.418-19.418-19.418h-28.999c10.63.057 19.305 8.788 19.305 19.418z" fill="#ffc369" fill-rule="evenodd"/><path clip-rule="evenodd" d="m58.338 375.964c0-10.658-8.731-19.417-19.418-19.417h-28.999c10.63.057 19.304 8.788 19.304 19.417v4.875c0 10.658-8.731 19.389-19.417 19.389h29.112c10.687 0 19.418-8.731 19.418-19.389z" fill="#95d6a4" fill-rule="evenodd"/><path clip-rule="evenodd" d="m270.258 269.125h29.112v39.232h-29.112z" fill="#dc4655" fill-rule="evenodd"/><path clip-rule="evenodd" d="m182.666 441.842c13.323 0 24.152-10.857 24.152-24.152 0-13.294-10.829-24.151-24.152-24.151-13.294 0-24.123 10.857-24.123 24.151.001 13.295 10.829 24.152 24.123 24.152z" fill="#e6646e" fill-rule="evenodd"/><path clip-rule="evenodd" d="m381.123 273.972c46.432-11.537 105.195 13.408 121.579 59.472 1.871 5.273 1.814 6.577 1.814 12.076v152.789c0 4.252-2.098 6.208-6.207 6.208h-35.094c-4.563-.057-6.236-2.381-6.236-6.633-.057-30.53-4.677-157.722-75.856-194.374z" fill="#9dc6fb" fill-rule="evenodd"/></g><path d="m240.154 477.304v27.213c0 4.139-3.373 7.483-7.512 7.483h-138.757c-4.139 0-7.512-3.345-7.512-7.483v-27.213h-12.133c-4.139 0-7.483-3.373-7.483-7.512 0-1.219.283-2.381.822-3.43l3.969-9.326c-4.28 1.02-8.703 1.559-13.21 1.559-16.044 0-30.643-6.577-41.216-17.15-10.545-10.573-17.122-25.143-17.122-41.216v-43.682-29.112-100.434c0-15.505 6.18-30.246 17.122-41.216 10.573-10.573 25.172-17.121 41.216-17.121 12.699 0 24.492 4.11 34.101 11.084 4.28 3.09 8.135 6.775 11.452 10.885l-8.957-47.453c-1.049-5.528 3.062-10.205 8.787-9.156-.34-1.417-.652-2.834-.935-4.28-1.134-5.669-1.729-11.565-1.729-17.604 0-1.899.057-3.798.199-5.726-6.718 0-12.529-2.098-17.32-6.917-4.28-4.252-6.917-10.12-6.917-16.583s2.637-12.359 6.917-16.611c3.401-3.402 7.852-5.783 12.812-6.577 3.43-16.157 12.047-30.388 23.981-40.904 13.323-11.706 30.785-18.822 49.891-18.822 6.661 0 13.153.879 19.389 2.523 4.252 1.134 8.334 2.608 12.246 4.422 4.025-4.45 8.702-6.945 13.861-6.945 9.581 0 17.518 8.533 22.621 22.31 3.685 9.949 6.18 23.074 6.775 37.616 4.564.935 8.646 3.203 11.82 6.378 4.253 4.252 6.889 10.148 6.889 16.611s-2.636 12.331-6.889 16.583c-5.527 5.528-11.31 6.917-18.793 6.917.113 1.928.17 3.827.17 5.726 0 10.205-1.701 19.985-4.763 28.971-1.814 5.329-4.139 10.403-6.888 15.108l12.785 2.296c4.28.794 7.03 5.046 5.868 9.298l-13.919 50.599c5.358 10.432 8.363 22.252 8.363 34.725v8.504h52.016c.567-2.58 1.843-4.848 3.628-6.633 2.41-2.41 5.726-3.912 9.411-3.912h20.608c3.657 0 7.001 1.502 9.411 3.912 1.927 1.956 3.288 4.479 3.742 7.342l41.613 4.082c26.419-6.208 56.297-1.559 81.043 11.537 23.868 12.643 43.087 33.109 50.118 59.358.227.879.255 1.645.255 2.523v94.906 69.761c0 4.139-3.345 7.483-7.484 7.483h-47.622c-4.479 0-7.937-3.883-7.455-8.305.255-10.432 2.381-152.874-69.903-192.503l-40.564 3.969c-.454 2.835-1.815 5.386-3.742 7.342-.681.652-1.417 1.276-2.24 1.786 1.446 3.855 2.212 8.05 2.212 12.387 0 9.893-3.997 18.851-10.488 25.342-6.491 6.492-15.449 10.488-25.342 10.488h-28.319-30.897v49.692l18.992 44.674c2.154 5.046-1.672 10.432-7.001 10.432h-11.993zm209.455-138.361c-3.26-2.523-3.855-7.2-1.332-10.488 2.523-3.26 7.2-3.855 10.488-1.333 13.635 10.488 25.399 27.95 34.385 46.063 1.332 2.722 2.636 5.499 3.855 8.249v-41.188c-6.066-21.486-22.252-38.41-42.35-49.04-20.239-10.687-44.306-14.996-66.048-11.169v19.049c70.442 40.791 75.686 165.63 75.828 197.918h32.57v-62.249c0-10.489-6.491-33.138-17.292-54.965-8.079-16.327-18.454-31.89-30.104-40.847zm15.76-74.524c-4.138.283-7.71-2.834-7.965-6.973-.283-4.11 2.835-7.682 6.945-7.965 7.001-.482 14.145-.369 21.345.595 7.229.936 14.457 2.721 21.571 5.556 3.827 1.531 5.698 5.868 4.195 9.694-1.53 3.855-5.868 5.726-9.694 4.195-5.924-2.353-11.962-3.827-18-4.62-6.094-.822-12.274-.907-18.397-.482zm-41.528-13.379c-3.742 1.786-8.192.227-10.006-3.487-1.786-3.713-.227-8.192 3.487-9.978 9.95-4.819 21.997-9.44 36.454-13.238 14.315-3.742 30.983-6.662 50.202-8.05 4.139-.312 7.711 2.806 7.994 6.945.312 4.11-2.807 7.71-6.945 7.994-18.312 1.333-34.073 4.082-47.509 7.597-13.352 3.486-24.493 7.766-33.677 12.217zm-198.682 135.016v-13.55l-36.964-.028c-8.135 0-15.874-2.778-22.054-7.654-6.066-4.762-10.659-11.537-12.643-19.616l-7.512-30.36c-.992-3.997 1.474-8.05 5.471-9.042 4.025-.992 8.079 1.474 9.043 5.471l7.54 30.36c1.162 4.706 3.827 8.646 7.37 11.423 3.6 2.835 8.107 4.479 12.784 4.479l36.964-.028v-41.642h-14.854v-.028c-3.374 0-6.435-2.268-7.285-5.698l-17.859-72.114c-1.389-5.585-4.876-10.063-9.411-12.812-4.564-2.75-10.176-3.77-15.732-2.41-5.557 1.361-10.035 4.876-12.785 9.411-2.75 4.564-3.799 10.148-2.41 15.733l7.512 30.359c.992 3.997-1.474 8.05-5.471 9.043-4.025.992-8.079-1.474-9.042-5.471l-7.54-30.36c-2.353-9.609-.624-19.219 4.11-27.043 4.734-7.823 12.473-13.833 22.054-16.214 9.581-2.353 19.219-.595 27.043 4.139s13.833 12.444 16.186 22.025l16.469 66.445h9.014v-47.736c0-17.008-6.973-32.457-18.199-43.683s-26.674-18.199-43.682-18.199c-17.037 0-32.485 6.973-43.711 18.199-11.226 11.225-18.199 26.674-18.199 43.683v132.918zm-15.563 14.995c2.75 4.422 4.422 9.581 4.706 15.137h10.857v-15.137zm1.73 30.133c-1.587 3.316-3.713 6.322-6.265 8.901-5.726 5.726-13.635 9.269-22.395 9.269-8.73 0-16.639-3.543-22.365-9.269-2.58-2.58-4.706-5.585-6.265-8.901h-55.219l-13.238 31.125h96.237c4.139 0 7.483 3.345 7.483 7.484s-3.345 7.512-7.483 7.512h-80.448v19.701h123.79v-19.701h-9.383c-4.139 0-7.512-3.373-7.512-7.512s3.373-7.484 7.512-7.484h25.172l-13.238-31.125zm-60.266-14.995c.255-5.556 1.956-10.715 4.706-15.137h-54.397v15.137zm43.399-10.262c-3.005-3.005-7.144-4.875-11.735-4.875-4.451 0-8.674 1.729-11.821 4.875-3.004 3.005-4.876 7.172-4.876 11.764s1.871 8.759 4.876 11.764c3.005 3.033 7.172 4.876 11.764 4.876 4.621 0 8.759-1.843 11.793-4.876 3.005-3.004 4.876-7.171 4.876-11.764-.001-4.592-1.872-8.759-4.877-11.764zm-23.839-376.219c4.139 0 7.512 3.373 7.512 7.512s-3.373 7.484-7.512 7.484h-17.065c-4.138 0-7.483-3.345-7.483-7.484s3.345-7.512 7.483-7.512zm36.964-2.183c-3.09 8.334-5.216 19.418-5.811 31.891h28.715c-.624-12.473-2.721-23.557-5.811-31.891-2.863-7.738-5.953-12.529-8.561-12.529-3.799 0-7.569 9.893-8.532 12.529zm-13.125-7.653c-2.665-1.162-5.443-2.126-8.277-2.863-4.904-1.304-10.12-2.013-15.562-2.013-15.336 0-29.339 5.697-39.997 15.08-8.731 7.682-15.251 17.83-18.426 29.339h74.552c.595-12.926 2.721-27.524 7.71-39.543zm84.077 295.997v41.642h20.835c5.754 0 10.97-2.325 14.741-6.095 3.77-3.77 6.094-8.986 6.094-14.74 0-5.726-2.324-10.941-6.094-14.711-3.771-3.771-8.986-6.095-14.741-6.095h-20.835zm-38.382 0v41.642h23.386v-41.642zm-119.906-178.868 90.879 16.356c3.572-5.074 6.52-10.828 8.646-17.036 2.551-7.455 3.94-15.59 3.94-24.18 0-1.984-.085-3.883-.198-5.726h-13.776c-4.139 0-7.484-3.373-7.484-7.512s3.345-7.512 7.484-7.512h30.983c2.325 0 4.451-.936 6.009-2.495 1.531-1.531 2.495-3.657 2.495-5.981s-.964-4.451-2.495-6.01c-1.559-1.531-3.685-2.495-6.009-2.495h-140.204c-2.324 0-4.45.964-5.981 2.495-1.559 1.559-2.523 3.686-2.523 6.01s.964 4.45 2.523 5.981c1.531 1.559 3.657 2.495 5.981 2.495h75.261c4.139 0 7.484 3.373 7.484 7.512s-3.345 7.512-7.484 7.512h-59.5c-.142 1.843-.227 3.742-.227 5.726 0 5.103.51 10.035 1.417 14.741.709 3.486 1.644 6.859 2.779 10.119zm-8.704 13.606 7.512 39.742c12.529-8.873 27.78-14.088 44.221-14.088 21.146 0 40.366 8.646 54.284 22.593 1.106 1.077 2.154 2.211 3.203 3.373l8.391-30.473c-39.203-7.03-78.407-14.089-117.611-21.147zm-31.861 287.324 6.69-15.733v-28.659-140.401c0-15.336 4.563-29.679 12.387-41.727-3.062-7.88-8.362-14.656-15.109-19.531-7.115-5.159-15.874-8.221-25.313-8.221-11.906 0-22.734 4.876-30.586 12.756-6.18 6.152-10.517 14.174-12.104 23.103h23.272c7.427 0 14.146 3.005 19.021 7.88s7.909 11.623 7.909 19.021v61.597c0 7.427-3.033 14.146-7.909 19.021s-11.594 7.909-19.021 7.909h-23.924v14.117h23.924c7.427 0 14.146 3.033 19.021 7.909 4.875 4.875 7.909 11.594 7.909 18.992v4.875c0 7.398-3.033 14.117-7.909 18.993-4.875 4.876-11.594 7.909-19.021 7.909h-23.272c1.587 8.929 5.924 16.923 12.104 23.102 7.852 7.853 18.681 12.728 30.586 12.728 4.252 0 8.277-.567 12.047-1.672 3.232-.936 6.349-2.268 9.298-3.968zm-40.763-73.872h-23.924v28.686h23.924c3.289 0 6.265-1.36 8.42-3.515 2.154-2.155 3.515-5.131 3.515-8.391v-4.875c0-3.26-1.361-6.236-3.515-8.391-2.155-2.182-5.132-3.514-8.42-3.514zm0-129.546h-23.924v85.438h23.924c3.289 0 6.265-1.361 8.42-3.516 2.154-2.183 3.515-5.159 3.515-8.419v-61.597c0-3.26-1.361-6.236-3.515-8.419-2.155-2.154-5.132-3.487-8.42-3.487zm285.198 76.281v-44.703h-17.235v35.575c6.604 1.39 12.529 4.622 17.235 9.128zm49.493-30.046-34.47-3.374v22.734l34.47-3.373zm-81.724-4.111h-51.733v24.237h30.897 20.835v-24.237z"/></g></svg>