<svg id="Filled" height="512" viewBox="0 0 512 512" width="512" xmlns="http://www.w3.org/2000/svg"><path d="m392 360h48v96h-48z" fill="#1261a0"/><path d="m440 360h-48l-16-48h48z" fill="#2d85cc"/><path d="m360 360h32v96h-32z" fill="#2d85cc"/><path d="m376 312-16 48h32z" fill="#1261a0"/><path d="m464 456h-32l-8-48h48z" fill="#e9eef2"/><path d="m56 280h240a32 32 0 0 1 32 32v176a0 0 0 0 1 0 0h-304a0 0 0 0 1 0 0v-176a32 32 0 0 1 32-32z" fill="#1261a0"/><path d="m232 280c0 35.346-25.072 64-56 64s-56-28.654-56-64z" fill="#e9eef2"/><circle cx="72" cy="192" fill="#f0c6a4" r="32"/><circle cx="280" cy="192" fill="#f0c6a4" r="32"/><rect fill="#f7cca9" height="224" rx="104" width="208" x="72" y="56"/><path d="m280 160-104-56-104 56a104 104 0 1 1 208 0z" fill="#95573a"/><path d="m216 216s-10 32-40 32-40-32-40-32z" fill="#eb423f"/><path d="m248 376-24-72h-8v-24h-96v32l80-6.667v86.667z" fill="#eb423f"/><circle cx="216" cy="296" fill="#c7312e" r="16"/><path d="m232 456h256v32h-256z" fill="#f7b030"/><path d="m360 456h-96l-16-32h128z" fill="#e9eef2"/><path d="m256 80-80 24-80-24s21.333-56 48-56c16 0 32 8 32 8s16-8 32-8c26.667 0 48 56 48 56z" fill="#1261a0"/><path d="m72 408h48v32h-48z" fill="#2d85cc"/><path d="m24 496h464a8 8 0 0 0 8-8v-32a8 8 0 0 0 -8-8h-14.556l6.448-38.685a8 8 0 0 0 -7.892-9.315h-24v-40a7.974 7.974 0 0 0 -.414-2.528l-16-48a8 8 0 0 0 -7.586-5.472h-48a7.927 7.927 0 0 0 -7.576 5.475h-.014l-16 48a7.974 7.974 0 0 0 -.41 2.525v56h-16v-104a40.045 40.045 0 0 0 -40-40h-62.369a112.84 112.84 0 0 0 39.334-40h7.035a40 40 0 0 0 7.764-79.237 110.692 110.692 0 0 0 -27.195-66.2 7.992 7.992 0 0 0 2.907-9.412c-2.385-6.258-24.199-61.151-55.476-61.151-13.117 0-25.951 4.667-32 7.225-6.049-2.558-18.883-7.225-32-7.225-31.277 0-53.091 54.893-55.476 61.152a7.992 7.992 0 0 0 2.907 9.412 110.692 110.692 0 0 0 -27.195 66.2 40 40 0 0 0 7.764 79.236h7.035a112.84 112.84 0 0 0 39.334 40h-62.369a40.045 40.045 0 0 0 -40 40v176a8 8 0 0 0 8 8zm456-16h-240v-16h240zm-219.056-48h102.112l-8 16h-86.112zm115.056-94.7 4.9 14.7h-9.8zm81.223 110.7h-18.446l-5.334-32h29.114zm-33.223-48a8 8 0 0 0 -7.892 9.315l6.448 38.685h-22.556v-80h32v32zm-5.766-80 10.666 32h-31.134l-10.666-32zm-50.234 48h16v80h-11.056l10.211-20.422a8 8 0 0 0 -7.155-11.578h-8zm-174.624-80a23.885 23.885 0 0 0 -1.376 8c0 .662.034 1.316.087 1.965l-64.087 5.341v-15.306zm-1.376 26.028v18.763a41.5 41.5 0 0 1 -16 3.209c-13.327 0-26-6.585-34.992-17.723zm16 4.6a23.971 23.971 0 0 0 12.743.9l17.138 51.413-29.881 9.959zm16-22.628a8 8 0 1 1 -8-8 8.009 8.009 0 0 1 8 8zm-115.776-203.981 46.976 14.094-74.2 39.956a95 95 0 0 1 27.224-54.05zm135.552 0a95 95 0 0 1 27.224 54.05l-74.2-39.956zm60.224 99.981a24.023 24.023 0 0 1 -23.384 23.984 111.424 111.424 0 0 0 7.384-39.984v-6.624a24.039 24.039 0 0 1 16 22.624zm-160-160c13.84 0 28.289 7.089 28.422 7.155a8.02 8.02 0 0 0 7.145.006c.144-.072 14.593-7.161 28.433-7.161 13.686 0 29.071 25.255 37.162 42.9l-69.162 20.748-69.162-20.748c8.091-17.645 23.476-42.9 37.162-42.9zm-96 160a24.039 24.039 0 0 1 16-22.624v6.624a111.424 111.424 0 0 0 7.384 39.984 24.023 24.023 0 0 1 -23.384-23.984zm32-16v-11.221l96-51.693 96 51.693v11.221a96 96 0 0 1 -192 0zm-48 136a24.027 24.027 0 0 1 24-24h56v24a8 8 0 0 0 8 8c.221 0 .442-.009.665-.028l1.986-.165c11.795 19.973 31.849 32.193 53.349 32.193a57.311 57.311 0 0 0 16-2.285v42.285a8 8 0 0 0 10.53 7.589l48-16a8 8 0 0 0 5.059-10.119l-20.838-62.515a23.934 23.934 0 0 0 3.873-22.955h57.376a24.027 24.027 0 0 1 24 24v104h-72a8 8 0 0 0 -7.155 11.578l10.211 20.422h-19.056a8 8 0 0 0 -8 8v24h-192z"/><circle cx="216" cy="176" r="8"/><circle cx="136" cy="176" r="8"/><path d="m168 200h16a8 8 0 0 0 0-16h-8v-8a8 8 0 0 0 -16 0v16a8 8 0 0 0 8 8z"/><path d="m223.636 218.386a8 8 0 0 0 -7.636-10.386h-80a8 8 0 0 0 -7.636 10.386c.48 1.536 12.162 37.614 47.636 37.614s47.156-36.078 47.636-37.614zm-74.85 5.614h54.385c-4.866 7.385-13.479 16-27.171 16-13.771 0-22.37-8.61-27.214-16z"/><path d="m120 400h-48a8 8 0 0 0 -8 8v32a8 8 0 0 0 8 8h48a8 8 0 0 0 8-8v-32a8 8 0 0 0 -8-8zm-8 32h-32v-16h32z"/></svg>