<svg id="_x33_0" enable-background="new 0 0 64 64" height="512" viewBox="0 0 64 64" width="512" xmlns="http://www.w3.org/2000/svg"><g><g><g><path d="m24.56 20.44c.29-.76.44-1.58.44-2.44v-5c-2.5 0-5.25-1-7.38-2-2.12-1-3.62-2-3.62-2-1.87 1.25-3 3.35-3 5.61v3.39c0 1.94.78 3.68 2.05 4.95.56.56 1.22 1.03 1.95 1.37v.01c-.05 1.89-.48 3.34-.76 4.1.06.05.12.1.17.16.37.36.59.86.59 1.41 0 .88-.29 1.7-.79 2.37-.11.16-.24.32-.38.46-.73.72-1.73 1.17-2.83 1.17-1.9 0-3.49-1.32-3.9-3.1-.06-.29-.1-.59-.1-.9v-17c0-3.04 1.23-5.79 3.22-7.78s4.74-3.22 7.78-3.22c6.08 0 11 4.92 11 11v4.32.01c-1.22.36-2.35 1.02-3.27 1.94z" fill="#fcd770"/></g><g><path d="m25.23 33.15c.5.5 1.05.92 1.65 1.26l-4.64 11.59h-11.24c-.55 0-1-.45-1-1v-2-.01c-.05.01-.11.01-.16.01h-.84-4-1l-.75-1.13c-.82-1.22-1.25-2.65-1.25-4.12 0-1.15.27-2.29.78-3.32l.66-1.32c.36-.71.98-1.25 1.74-1.5l1.92-.71c.41 1.78 2 3.1 3.9 3.1 1.1 0 2.1-.45 2.83-1.17.14-.14.27-.3.38-.46l.01.01 1.49 2.62 1.59 2.78c.43.75 1.24 1.22 2.1 1.22.97 0 1.85-.58 2.23-1.47l1.08-2.53 1.4-3.26.01-.01c.3.51.68.99 1.11 1.42z" fill="#e6e9ed"/></g><g><path d="m39.94 39.97c-.12.83-.51 1.6-1.11 2.2l-1.66 1.66c-.36.36-.79.65-1.26.85-.49.21-1.02.32-1.57.32h-2.66-.01c-.19 1.44-.47 2.87-.86 4.28-.43 1.55-.81 3.54-.81 5.72 0 3 2 7 2 7h-23s2-4 2-7c0-1.05-.09-2.06-.23-3v-.01c.08.01.15.01.23.01h13c1.66 0 3-1.34 3-3 0-.81-.32-1.54-.85-2.08l.01-.01.39-.91 4.24-10.58c.79-.01 1.59-.14 2.37-.4.32-.11.65-.16.98-.16.81 0 1.6.32 2.2.91l1.47 1.47c.62.62 1.37 1.1 2.19 1.4v.7c0 .21-.02.42-.06.63z" fill="#e6e9ed"/></g><g><path d="m22.71 35-1.08 2.53c-.38.89-1.26 1.47-2.23 1.47-.86 0-1.67-.47-2.1-1.22l-1.59-2.78z" fill="#aab2bd"/></g><g><path d="m37.4 32.51 9.86 3.77-.97.96c-1.13 1.14-2.66 1.76-4.24 1.76-.28 0-.56-.02-.85-.06-.41-.06-.82-.16-1.2-.3-.82-.3-1.57-.78-2.19-1.4l-1.47-1.47c-.6-.59-1.39-.91-2.2-.91-.33 0-.66.05-.98.16-.78.26-1.58.39-2.37.4l1.88-4.72z" fill="#cf9e76"/></g><g><path d="m23 27 5.93 2.27-2.05 5.14c-.6-.34-1.15-.76-1.65-1.26-.43-.43-.81-.91-1.11-1.42-.76-1.21-1.16-2.62-1.16-4.06v-.68c.02.01.03.01.04 0z" fill="#cf9e76"/></g><g><path d="m24.56 20.44 1.17-1.17c.92-.92 2.05-1.58 3.27-1.94.71-.22 1.45-.33 2.21-.33.85 0 1.69.14 2.47.4l-2.3 5.76-3.4-1.3c-.05-.48-.28-.92-.6-1.24-.38-.38-.92-.62-1.5-.62-.53 0-1.05.2-1.44.57z" fill="#cf9e76"/></g><g><path d="m49 29v.89l-9.16-3.5-4.72-1.8 1.96-4.9c.41.48.77 1.01 1.06 1.59.53 1.06 1.6 1.72 2.78 1.72h2.08c1.3 0 2.56.42 3.6 1.2.76.56 1.36 1.29 1.77 2.12.41.82.63 1.74.63 2.68z" fill="#cf9e76"/></g><g><path d="m27.38 20.62c.32.32.55.76.6 1.24.01.09.02.17.02.26 0 1.02-.35 2.02-.98 2.82-.11.14-.23.27-.35.39l-.34.34c-.85.85-2.01 1.33-3.21 1.33-.04 0-.08 0-.12-.01-.01.01-.02.01-.04 0-.52-.03-.99-.26-1.34-.61-.38-.38-.62-.92-.62-1.5 0-.2.03-.4.08-.59.1-.34.28-.65.54-.91l2.76-2.76.05-.05h.01c.39-.37.91-.57 1.44-.57.58 0 1.12.24 1.5.62z" fill="#d3a06c"/></g><g><path d="m31.38 23.16-1.2 2.99-3.16-1.21c.63-.8.98-1.8.98-2.82 0-.09-.01-.17-.02-.26z" fill="#ecc19c"/></g><g><path d="m26.67 25.33c.12-.12.24-.25.35-.39l3.16 1.21-1.24 3.12h-.01l-5.93-2.27v-.01c.04.01.08.01.12.01 1.2 0 2.36-.48 3.21-1.33z" fill="#ecc19c"/></g><g><path d="m38.64 29.39-1.24 3.12-4.73-1.81 1.25-3.12z" fill="#ecc19c"/></g><g><path d="m39.84 26.39-1.2 3-4.72-1.81 1.2-2.99z" fill="#ecc19c"/></g><g><path d="m60.83 33.17c.72.73 1.17 1.73 1.17 2.83s-.45 2.1-1.17 2.83c-.73.72-1.73 1.17-2.83 1.17-.66 0-1.32-.12-1.93-.36l-2-.76-5.04-1.93-1.77-.67-9.86-3.77 1.24-3.12 1.2-3 9.16 3.5 7.45 2.85c.04-.05.09-.1.14-.15.36-.37.86-.59 1.41-.59 1.1 0 2.1.45 2.83 1.17z" fill="#ecc19c"/></g><g><path d="m26.55 46-.39.91-.01.01c0-.01-.02-.03-.03-.04-.54-.54-1.29-.88-2.12-.88h-1.76l4.64-11.59 2.05-5.14h.01l1.24-3.12 1.2-2.99 2.3-5.76 2.46-6.14c.31-.77 1.03-1.26 1.86-1.26.25 0 .5.05.74.14.5.2.89.58 1.1 1.07s.21 1.04.02 1.53l-2.78 6.95-1.96 4.9-1.2 2.99-1.25 3.12-1.88 4.72z" fill="#d3a06c"/></g><g><path d="m39.95 39.97 5.05 3.03 4.03-6.05 5.04 1.93-4.54 8.31c-.47.87-1.16 1.57-1.98 2.05-.82.49-1.77.76-2.75.76-1.17 0-2.3-.38-3.24-1.08l-5.65-4.24c.47-.2.9-.49 1.26-.85l1.66-1.66c.6-.6.99-1.37 1.11-2.2z" fill="#f0d0b4"/></g><g><path d="m10 43v2c0 .55.45 1 1 1h11.24 1.76c.83 0 1.58.34 2.12.88.01.01.03.03.03.04.53.54.85 1.27.85 2.08 0 1.66-1.34 3-3 3h-13c-.08 0-.15 0-.23-.01-3.76-.12-6.77-3.2-6.77-6.99v-2h1 4 .84c.05 0 .11 0 .16-.01z" fill="#f0d0b4"/></g><g><path d="m24.12 31.73-.01.01-1.4 3.26h-7l-1.49-2.62-.01-.01c.5-.67.79-1.49.79-2.37 0-.55-.22-1.05-.59-1.41-.05-.06-.11-.11-.17-.16.28-.76.71-2.21.76-4.1v-.01c.91.44 1.92.68 3 .68 1.11 0 2.15-.26 3.08-.71-.05.19-.08.39-.08.59 0 .58.24 1.12.62 1.5.35.35.82.58 1.34.61v.68c0 1.44.4 2.85 1.16 4.06z" fill="#f0d0b4"/></g><g><path d="m25 13v5c0 .86-.15 1.68-.44 2.44l-.12.13h-.01c-.02.02-.03.03-.05.05l-2.76 2.76c-.26.26-.44.57-.54.91-.93.45-1.97.71-3.08.71-1.08 0-2.09-.24-3-.68-.73-.34-1.39-.81-1.95-1.37-1.27-1.27-2.05-3.01-2.05-4.95v-3.39c0-2.26 1.13-4.36 3-5.61 0 0 1.5 1 3.62 2 2.13 1 4.88 2 7.38 2z" fill="#f0d0b4"/></g><g><circle cx="46" cy="12" fill="#ff826e" r="2"/></g><g><circle cx="52" cy="21" fill="#ff826e" r="2"/></g><g><circle cx="60" cy="23" fill="#ff826e" r="2"/></g></g><g><circle cx="15" cy="16" r="1"/><circle cx="21" cy="16" r="1"/><path d="m15.895 18.553-1.789.895.105.211c.722 1.444 2.174 2.341 3.789 2.341s3.067-.897 3.789-2.342l.105-.211-1.789-.895-.105.212c-.381.762-1.147 1.236-2 1.236s-1.619-.474-2-1.236z"/><path d="m46 15c1.654 0 3-1.346 3-3v-8.84c.68.225 1.26.66 1.9 1.14 1.062.797 2.267 1.7 4.1 1.7v-2c-1.167 0-1.97-.603-2.9-1.3-1.062-.797-2.267-1.7-4.1-1.7h-1v8.184c-.314-.112-.648-.184-1-.184-1.654 0-3 1.346-3 3s1.346 3 3 3zm0-4c.551 0 1 .448 1 1s-.449 1-1 1-1-.448-1-1 .449-1 1-1z"/><path d="m62 12c-2.463 0-4.929-.582-7.131-1.684l-1.869-.933v8.801c-.314-.112-.648-.184-1-.184-1.654 0-3 1.346-3 3s1.346 3 3 3 3-1.346 3-3v-8.422c1.899.803 3.94 1.277 6 1.394v6.213c-.314-.113-.648-.185-1-.185-1.654 0-3 1.346-3 3s1.346 3 3 3 3-1.346 3-3v-11zm-10 10c-.551 0-1-.448-1-1s.449-1 1-1 1 .448 1 1-.449 1-1 1zm8 2c-.551 0-1-.448-1-1s.449-1 1-1 1 .448 1 1-.449 1-1 1z"/><path d="m58 31c-.663 0-1.27.223-1.767.588l-6.233-2.383v-.205c0-2.191-1.047-4.285-2.8-5.6-1.203-.903-2.695-1.4-4.2-1.4h-2.082c-.802 0-1.523-.445-1.882-1.163-.23-.46-.514-.89-.82-1.302l2.568-6.421c.297-.743.287-1.559-.028-2.295-.316-.738-.9-1.308-1.639-1.602-.356-.144-.733-.217-1.12-.217-1.233 0-2.326.741-2.784 1.888l-2.129 5.322c-.615-.135-1.241-.21-1.874-.21-.409 0-.812.038-1.21.093v-3.093c0-6.617-5.383-12-12-12s-12 5.383-12 12v17c0 .079.02.152.023.23l-1.16.429c-1.014.337-1.835 1.05-2.313 2.006l-.661 1.321c-.581 1.163-.889 2.465-.889 3.766 0 1.669.489 3.284 1.415 4.673l.585.878v1.697c0 4.026 2.993 7.358 6.868 7.91.079.707.132 1.409.132 2.09 0 2.725-1.875 6.516-1.895 6.553l-.722 1.447h26.235l-.724-1.447c-.019-.038-1.894-3.821-1.894-6.553 0-1.764.26-3.599.772-5.452.315-1.141.552-2.333.746-3.548h1.825c.473 0 .929-.088 1.372-.214l5.246 3.935c1.1.825 2.462 1.279 3.836 1.279 2.341 0 4.492-1.277 5.613-3.332l4.119-7.542 1.179.451c.735.28 1.506.423 2.292.423 2.757 0 5-2.243 5-5s-2.243-5-5-5zm-17.082-7h2.082c1.075 0 2.141.355 3 1 1.099.824 1.808 2.076 1.966 3.428l-11.542-4.413.877-2.192c.715 1.343 2.089 2.177 3.617 2.177zm6.578 13.453-2.799 4.199-2.768-1.661c.037.001.074.008.111.008 1.843 0 3.644-.732 4.96-2.05zm-6.153.496c-1.064-.151-2.068-.654-2.829-1.414l-1.472-1.472c-1.105-1.105-2.715-1.486-4.2-.991-.16.054-.326.081-.49.122l.884-2.21 12.215 4.67c-1.099 1.022-2.618 1.507-4.108 1.295zm-7.364-7.821.504-1.26 2.856 1.092-.504 1.259zm4.102-2.024-2.856-1.092.456-1.141 2.856 1.092zm-1.011-16.474c.201-.503.791-.761 1.302-.557.247.099.44.288.545.533.107.249.11.515.01.766l-13.211 33.03c-.522-.25-1.099-.402-1.716-.402h-.278zm-11.134 20.811c-1.087-1.087-1.753-2.481-1.927-3.986l3.623 1.385-1.21 3.026c-.167-.137-.334-.272-.486-.425zm-3.881 1.559h-5.761l-.925-1.619c.39-.711.631-1.515.631-2.381 0-.684-.239-1.308-.626-1.813.191-.613.4-1.456.522-2.477.672.183 1.375.29 2.104.29s1.438-.107 2.125-.297c.26.942.942 1.708 1.839 2.068.017 1.431.371 2.807 1.032 4.035zm-.857 2-.488 1.14c-.225.522-.737.86-1.306.86-.508 0-.981-.274-1.233-.716l-.733-1.284zm7.678-12.731 1.201.459-.456 1.141-1.141-.437c.171-.373.311-.759.396-1.163zm-.502 4.715-2.267-.866c.331-.213.645-.455.93-.74l.258-.258 1.583.606zm-2.411-3.362-.342.343c-.667.668-1.555 1.035-2.5 1.035-.618 0-1.121-.503-1.121-1.121 0-.295.12-.584.328-.793l2.758-2.758c.212-.212.493-.328.793-.328.618 0 1.121.503 1.121 1.121 0 .944-.368 1.832-1.037 2.501zm-1.963-6.622c0 .657-.118 1.297-.325 1.911-.001.001-.002.002-.003.003l-2.758 2.758c-.247.247-.438.539-.588.85-.735.311-1.514.478-2.326.478-3.309 0-6-2.691-6-6v-3.395c0-1.71.755-3.31 2.046-4.393 1.563.955 5.875 3.379 9.954 3.741zm8.329.096-1.51 3.775-2.004-.766c-.274-.789-.85-1.432-1.597-1.79 1.152-.849 2.535-1.315 3.992-1.315.377 0 .751.034 1.119.096zm-24.329-5.096c0-5.514 4.486-10 10-10s10 4.486 10 10v3.612c-.711.28-1.38.658-2 1.12v-5.732h-1c-4.633 0-10.388-3.794-10.446-3.832l-.554-.369-.554.369c-2.158 1.437-3.446 3.845-3.446 6.437v3.395c0 2.939 1.598 5.507 3.967 6.897-.062.851-.201 1.587-.351 2.167-.199-.041-.405-.064-.616-.064-1.654 0-3 1.346-3 3v1h2v-1c0-.552.449-1 1-1s1 .448 1 1c0 1.654-1.346 3-3 3s-3-1.346-3-3zm-4.322 21.88.661-1.321c.239-.479.649-.834 1.186-1.013l.996-.368c.813 1.664 2.506 2.822 4.479 2.822 1.122 0 2.149-.385 2.984-1.012l2.451 4.288c.607 1.063 1.744 1.724 2.969 1.724 1.37 0 2.604-.813 3.143-2.073l1.818-4.243c.053.056.1.116.155.171.347.347.731.653 1.131.937l-4.083 10.208h-10.568v-1.178c1.219-.37 2.214-1.303 2.632-2.558.244-.731.368-1.493.368-2.264v-1h-2v1c0 .556-.089 1.104-.265 1.632-.255.765-.943 1.276-1.735 1.342v-1.974h-2v2h-2v-4h-2v3.176c-.649-1.028-1-2.206-1-3.424 0-.992.234-1.985.678-2.872zm1.322 10.12v-1h4v1c0 1.103.897 2 2 2h13c1.103 0 2 .897 2 2s-.897 2-2 2h-13c-3.309 0-6-2.691-6-6zm27.781-1c.134-1.304.219-2.633.219-4h-2c0 3.208-.389 6.241-1.155 9.015-.561 2.027-.845 4.041-.845 5.985 0 2.063.839 4.489 1.459 6h-19.918c.62-1.511 1.459-3.937 1.459-6 0-.654-.045-1.325-.11-2h12.11c2.206 0 4-1.794 4-4 0-.829-.254-1.599-.687-2.239l.169-.39 4.006-10.014c.675-.06 1.343-.173 1.988-.387.761-.256 1.586-.059 2.153.508l1.472 1.472c.552.552 1.199 1.002 1.899 1.342v.052c0 .802-.312 1.556-.878 2.122l-1.657 1.656c-.559.558-1.332.878-2.122.878zm15.874 2.71c-.77 1.412-2.248 2.29-3.857 2.29-.944 0-1.88-.313-2.636-.879l-4.521-3.391c.077-.068.164-.122.237-.195l1.657-1.656c.413-.413.729-.894.972-1.408l4.795 2.877 4.117-6.176 3.224 1.233zm9.345-7.71c-.541 0-1.071-.098-1.577-.291l-17.72-6.775 1.703-4.257 14.687 5.615c-.055.229-.093.463-.093.708 0 1.654 1.346 3 3 3h1v-2h-1c-.551 0-1-.448-1-1s.449-1 1-1c1.654 0 3 1.346 3 3s-1.346 3-3 3z"/></g></g></svg>