<svg id="_x33_0" enable-background="new 0 0 64 64" height="512" viewBox="0 0 64 64" width="512" xmlns="http://www.w3.org/2000/svg"><g><g><g><path d="m23 14-1 4h-.67c-1.84 0-3.33 1.49-3.33 3.33 0 1.05.49 2.04 1.33 2.67l2.67 2v4l-4.17-2.5c-3.62-2.17-5.83-6.08-5.83-10.29v-3.21z" fill="#b27946"/></g><g><path d="m37 14s2 3 3 6.99l-2 1v2.01c0 .7-.12 1.37-.34 2h-.01c-.81 2.33-3.04 4-5.65 4h-2v4l-4 2-4-2v-4-4l-2.67-2c-.84-.63-1.33-1.62-1.33-2.67 0-1.84 1.49-3.33 3.33-3.33h.67l1-4h2z" fill="#f0d0b4"/></g><g><path d="m27 40 3 17-4 5-4-5 3-17z" fill="#e6e9ed"/></g><g><path d="m26 36 3 2-2 2h-2l-2-2z" fill="#ccd1d9"/></g><g><path d="m12 52v8h-3.66c-1.75 0-3.34-.71-4.48-1.86-1.15-1.14-1.86-2.73-1.86-4.48 0-.44.05-.88.14-1.31l2.8-13.32c.19-.88.55-1.7 1.06-2.4v.37c0 .55.45 1 1 1h3 2v3z" fill="#75b1f2"/></g><g><path d="m22 57 4 5h-13c-.55 0-1-.45-1-1v-1-8-11-3h2 5.33l.67 2 3-2 2 2z" fill="#75b1f2"/></g><g><path d="m40 38v4 19c0 .55-.45 1-1 1h-13l4-5-3-17 2-2 3 2 .67-2h5.33z" fill="#75b1f2"/></g><g><path d="m54 34v-8h8v10c0 3.31-2.69 6-6 6h-16v-4h2 3c.55 0 1-.45 1-1v-3z" fill="#75b1f2"/></g><g><path d="m54 18h8v8h-8z" fill="#5d9cec"/></g><g><path d="m34 34-1.33 4-.67 2-3-2-3-2 4-2z" fill="#5d9cec"/></g><g><path d="m26 36-3 2-3 2-.67-2-1.33-4h4z" fill="#5d9cec"/></g><g><path d="m18 34h-11c-.55 0-1 .45-1 1v1.63.37c0 .55.45 1 1 1h12.33z" fill="#fcd770"/></g><g><path d="m34 34-1.33 4h12.33c.55 0 1-.45 1-1v-3z" fill="#fcd770"/></g><g><path d="m33 8c0 1.1.9 2 2 2h-6.66c-1.37 0-2.57.94-2.91 2.27l-.43 1.73h-2-11v-5.52c0-1.44 1.02-2.67 2.44-2.94l18.28-3.49c.18-.03.38-.05.57-.05 1.55 0 2.85 1.15 3.05 2.69l.26 2.11c-.36-.49-.95-.8-1.6-.8-1.1 0-2 .9-2 2z" fill="#ccd1d9"/></g><g><path d="m41.12 10.88c.54.54.88 1.29.88 2.12 0 .55-.45 1-1 1h-4-12l.43-1.73c.34-1.33 1.54-2.27 2.91-2.27h6.66 2 2c.83 0 1.58.34 2.12.88z" fill="#aab2bd"/></g><g><path d="m36.6 6.8.4 3.2h-2c-1.1 0-2-.9-2-2s.9-2 2-2c.65 0 1.24.31 1.6.8z" fill="#fcd770"/></g></g><g><path d="m58 7c-2.542 0-4.646 1.906-4.96 4.373-1.262.686-2.04 1.987-2.04 3.434 0 1.037.423 2.051 1.161 2.78l.839.83v14.583h-22v-2h1c3.86 0 7-3.141 7-7v-1.393l2.165-1.083-.195-.778c-.602-2.399-1.539-4.436-2.234-5.746h2.264c1.103 0 2-.897 2-2 0-2.206-1.794-4-4-4h-1.118l-.555-4.435c-.253-2.032-1.989-3.565-4.037-3.565-.253 0-.51.024-.761.072l-18.277 3.48c-1.885.36-3.252 2.012-3.252 3.93v8.724c0 4.54 2.418 8.812 6.312 11.147l3.688 2.213v2.434h-14c-1.103 0-2 .897-2 2v1.341c-.495.76-.85 1.593-1.038 2.487l-2.804 13.319c-.105.495-.158 1.004-.158 1.513 0 4.047 3.292 7.34 7.34 7.34h2.66c0 1.103.897 2 2 2h26c1.103 0 2-.897 2-2v-18h15c3.86 0 7-3.141 7-7v-24c0-2.757-2.243-5-5-5zm-3.936 6.094.936-.472v-.622c0-1.654 1.346-3 3-3s3 1.346 3 3v5h-6.589l-.844-.835c-.36-.356-.567-.852-.567-1.358 0-.721.418-1.394 1.064-1.713zm.936 9.906h6v2h-6zm0-2v-2h6v2zm-37.054 16h-2.946v-2h2.279zm-6.946 0v-2h2v2zm10.764-2 2.248 1.124-3.477 2.318-1.147-3.442zm4.075 6h.322l2.776 15.729-2.937 3.67-2.937-3.671zm.747-2h-1.172l-.844-.844 1.43-.954 1.43.954zm1.403-2.876 2.247-1.124h2.376l-1.147 3.441zm6.732-1.124h2.279v2h-2.946zm4.279 0h2v2h-2zm4 0h2v2h-2zm-4.18-14.539-1.82.91v2.629c0 .342-.035.677-.101 1h-1.663c-.998 0-1.895-.555-2.341-1.447l-1.789.895c.788 1.574 2.37 2.553 4.13 2.553h.739c-.914 1.207-2.348 2-3.974 2h-5v2h2v2.382l-3 1.5-3-1.5v-7.883l-3.066-2.3c-.586-.438-.935-1.137-.935-1.867 0-1.286 1.047-2.333 2.333-2.333h1.447l1-4h12.663c.513.863 1.63 2.905 2.377 5.461zm2.18-7.461h-14.719l.122-.485c.222-.892 1.02-1.515 1.939-1.515h10.658c1.103 0 2 .897 2 2zm-6-4c-.551 0-1-.448-1-1s.449-1 1-1c.25 0 .47.112.652.276l.215 1.724zm-20.375-2.482 18.277-3.48c1.152-.225 2.295.613 2.441 1.776l.029.231c-.124-.017-.246-.045-.372-.045-1.654 0-3 1.346-3 3 0 .352.072.686.184 1h-3.842c-1.839 0-3.435 1.246-3.88 3.03l-.243.97h-11.219v-4.518c0-.959.684-1.785 1.625-1.964zm3.716 20.121c-3.295-1.977-5.341-5.591-5.341-9.433v-2.206h8.719l-.5 2.002c-2.337.061-4.219 1.98-4.219 4.331 0 1.356.648 2.652 1.733 3.467l2.267 1.7v1.734zm-11.341 8.361h2v2h-2zm4 6v10h-4v2h4v6h-2.66c-2.944 0-5.34-2.396-5.34-5.34 0-.37.039-.739.115-1.1l2.804-13.32c.035-.166.104-.319.154-.479.278.148.591.239.927.239h11.612l.853 2.559 3.407-2.272 1.052 1.052-2.988 16.933 2.983 3.728h-10.919v-20zm17.081 20 2.983-3.729-2.988-16.933 1.052-1.052 3.407 2.272.853-2.558h5.612v22zm27.919-20h-15v-2h4c1.103 0 2-.897 2-2v-2h6.586l1.707 1.707 1.414-1.414-1.707-1.707v-6.586h6v9c0 2.757-2.243 5-5 5z"/><path d="m34 20c1.654 0 3-1.346 3-3h-2c0 .552-.449 1-1 1s-1-.448-1-1h-2c0 1.654 1.346 3 3 3z"/></g></g></svg>