<svg height="512" viewBox="0 0 64 64" width="512" xmlns="http://www.w3.org/2000/svg"><g id="postman-mail-postal"><path d="m10 13h20a0 0 0 0 1 0 0v10a10 10 0 0 1 -10 10 10 10 0 0 1 -10-10v-10a0 0 0 0 1 0 0z" fill="#ffdaaa"/><ellipse cx="20" cy="6.5" fill="#3d9ae2" rx="13" ry="3.5"/><path d="m11 39h18a8 8 0 0 1 8 8v14a0 0 0 0 1 0 0h-34a0 0 0 0 1 0 0v-14a8 8 0 0 1 8-8z" fill="#3d9ae2"/><path d="m10 16v5h-2a1 1 0 0 1 -1-1v-3a1 1 0 0 1 1-1z" fill="#ffc477"/><path d="m33 17v3a1 1 0 0 1 -1 1h-2v-5h2a1 1 0 0 1 1 1z" fill="#ffc477"/><path d="m18 6h4v3h-4z" fill="#e0e0e2"/><path d="m23 32.54v6.46h-6v-6.46a10.013 10.013 0 0 0 6 0z" fill="#ffdaaa"/><path d="m30 13v.5c0 1.38-4.48 2.5-10 2.5s-10-1.12-10-2.5v-.5z" fill="#3d9ae2"/><path d="m30 9.55v3.45h-20v-3.45-.55h8 4 8z" fill="#00e7f0"/><g fill="#ddfffb"><path d="m20 39-3 6-3-6h3z"/><path d="m26 39-3 6-3-6h3z"/><path d="m11.08 39 7.92 22h-4l-7.61-21.14a7.941 7.941 0 0 1 3.61-.86z"/></g><path d="m27 43h34v18h-34z" fill="#ffda44"/><path d="m61 43v1l-16.95 10-17.05-10v-1z" fill="#ff9811"/><path d="m16 20h2v2h-2z"/><path d="m22 20h2v2h-2z"/><path d="m61 42h-24.55a8.982 8.982 0 0 0 -7.45-4h-5v-4.76a11.025 11.025 0 0 0 7-10.24v-1h1a2.006 2.006 0 0 0 2-2v-3a2.006 2.006 0 0 0 -2-2h-1v-4.79c2.44-1.06 3-2.31 3-3.21 0-3.44-7.26-5-14-5s-14 1.56-14 5c0 .9.56 2.15 3 3.21v4.79h-1a2.006 2.006 0 0 0 -2 2v3a2.006 2.006 0 0 0 2 2h1v1a11.025 11.025 0 0 0 7 10.24v4.76h-5a9.014 9.014 0 0 0 -9 9v14a1 1 0 0 0 1 1h58a1 1 0 0 0 1-1v-18a1 1 0 0 0 -1-1zm-52-22h-1v-3h1zm50.03 24-14.98 8.84-15.07-8.84zm-34.65-4-1.38 2.76-1.38-2.76zm-6.38-2v-4.19a10.621 10.621 0 0 0 4 0v4.19zm11-26h-18v-2h18zm-1.16 2a25.96 25.96 0 0 1 -7.84 1 25.96 25.96 0 0 1 -7.84-1zm-8.84-6v-1h2v1zm13 9v3h-1v-3zm-22.59-8.79c-1.01-.5-1.41-.97-1.41-1.21 0-1.06 4.56-3 12-3s12 1.94 12 3c0 .24-.4.71-1.41 1.21a1.031 1.031 0 0 0 -.59-.21h-7v-2a1 1 0 0 0 -1-1h-4a1 1 0 0 0 -1 1v2h-7a1.031 1.031 0 0 0 -.59.21zm1.59 14.79v-7.31c2.95 1.26 8.2 1.31 9 1.31s6.05-.05 9-1.31v7.31a9 9 0 0 1 -18 0zm7.38 17-1.38 2.76-1.38-2.76zm-8.38 20v-4h-2v4h-4v-13a6.992 6.992 0 0 1 2.87-5.64l6.71 18.64zm5.7 0-7.05-19.59a7.1 7.1 0 0 1 1.74-.38l7.19 19.97zm11.3-18a1 1 0 0 0 -1 1v17h-6.3l-7.2-20h.88l2.73 5.45a1 1 0 0 0 1.78 0l2.11-4.21 2.11 4.21a1 1 0 0 0 1.78 0l2.73-5.45h2.38a7.009 7.009 0 0 1 4.89 2zm33 18h-32v-14.25l15.55 9.11a.993.993 0 0 0 .5.14 1.03 1.03 0 0 0 .51-.14l15.44-9.11z"/></g></svg>