<svg id="Capa_1" enable-background="new 0 0 512 512" height="512" viewBox="0 0 512 512" width="512" xmlns="http://www.w3.org/2000/svg"><g><g><path clip-rule="evenodd" d="m129.194 365.286c24.916 14.365 7.001 30.402 34.411 46.24l11.905 6.857 76.363 44.058 8.277 4.788c10.374 5.978 23.782 2.408 29.791-7.99 5.981-10.342 2.438-23.687-7.88-29.722l11.055 6.375c11.933 6.885 27.325 2.777 34.213-9.152 6.86-11.9 2.75-27.285-9.127-34.17l11.707 6.772c11.933 6.885 27.325 2.748 34.213-9.152 6.888-11.928 2.75-27.313-9.156-34.198l-4.79-2.748c11.933 6.772 27.24 2.635 34.1-9.237 6.888-11.928 2.749-27.313-9.156-34.198l-26.305-15.158-55.812-32.215c-22.195-18.473-8.05-31.648 4.252-54.825l-38.493-22.213c-1.956-1.133-3.685-2.578-5.102-4.222l-45.154 20.343c-11.367 5.1-13.039 3.485-24.15-2.947l-19.785-11.418-86 148.919z" fill="#ffdcd5" fill-rule="evenodd"/></g><g><path clip-rule="evenodd" d="m18.873 328.793 32.257 18.615c8.617 4.958 19.87 1.728 25.029-7.197l2.409-4.137 86-148.919 2.409-4.165c5.159-8.925 2.324-20.287-6.293-25.245l-32.284-18.614c-8.589-4.987-19.87-1.757-25.029 7.168l-90.791 157.221c-5.159 8.925-2.324 20.287 6.293 25.273z" fill="#ebddd9" fill-rule="evenodd"/></g><g><path clip-rule="evenodd" d="m258.761 185.399 38.493 22.213 76.363 44.058 47.507 27.427c9.467 5.468 21.713 2.182 27.183-7.282l46.572-80.665c5.471-9.463 2.183-21.703-7.285-27.172l-11.48-6.602-139.375-80.465-11.48-6.602c-9.467-5.468-21.713-2.21-27.183 7.282l-46.572 80.636c-4.337 7.508-3.203 16.717 2.154 22.95 1.418 1.643 3.147 3.088 5.103 4.222z" fill="#ffe6b4" fill-rule="evenodd"/></g><g><path clip-rule="evenodd" d="m336.739 76.911 139.375 80.466 15.136-26.208c22.138-38.335 8.872-87.776-29.451-109.905-38.323-22.128-87.814-8.868-109.952 29.438z" fill="#ff7b79" fill-rule="evenodd"/></g><g><path clip-rule="evenodd" d="m293.002 262.437 55.812 32.215 24.802-42.982-76.363-44.058c-12.301 23.177-26.446 36.351-4.251 54.825z" fill="#ebddd9" fill-rule="evenodd"/></g><g><path clip-rule="evenodd" d="m168.112 477.486 36.282 20.938c11.026 6.347 25.227 2.55 31.605-8.472l15.873-27.512-76.363-44.058-15.873 27.512c-6.349 11.022-2.551 25.217 8.476 31.592z" fill="#ebddd9" fill-rule="evenodd"/></g><path d="m442.559 179.759c-3.271-4.45-9.53-5.404-13.98-2.133l-18.806 13.826 2.58-23.195c.61-5.489-3.344-10.433-8.832-11.043-5.492-.612-10.433 3.344-11.043 8.832l-5.102 45.871c-.61 5.489 3.344 10.433 8.832 11.043.376.042.749.062 1.118.062 2.18 0 4.228-.713 5.895-1.936.005-.004.01-.005.015-.009l.03-.022s.001-.001.001-.001l37.16-27.319c4.448-3.268 5.403-9.527 2.132-13.976z"/><g><path d="m57.92 234.891c-1.498 0-3.016-.338-4.445-1.052-4.939-2.469-6.956-8.447-4.486-13.387l.028-.057c2.47-4.939 8.475-6.941 13.415-4.472s6.942 8.476 4.472 13.415c-1.755 3.511-5.304 5.553-8.984 5.553z"/></g><g><path d="m492.591 155.318-2.806-1.619 10.125-17.53c12.041-20.851 15.218-45.221 8.946-68.619-6.271-23.393-21.207-42.906-42.056-54.944-43.196-24.943-98.648-10.098-123.616 33.103l-10.122 17.558-2.805-1.619c-6.891-3.979-14.941-5.033-22.67-2.968-7.74 2.069-14.193 7.012-18.169 13.91l-46.56 80.614c-3.998 6.881-5.066 14.929-3.006 22.66.045.169.099.333.146.501l-35.588 16.033c-4.605 2.066-5.938 2.181-6.288 2.135-1.069-.139-3.99-1.839-7.083-3.638l-13.209-7.627c2.008-5.538 2.29-11.527.739-17.302-1.937-7.218-6.518-13.215-12.891-16.881l-32.26-18.601c-6.359-3.692-13.838-4.664-21.062-2.739-7.479 1.992-13.745 6.805-17.648 13.557l-22.959 39.78c-2.761 4.783-1.121 10.898 3.662 13.658 4.786 2.761 10.899 1.12 13.659-3.662l22.957-39.774c1.223-2.116 3.168-3.619 5.478-4.235 2.057-.547 4.142-.295 5.899.725l32.293 18.62c1.744 1.003 3.008 2.686 3.558 4.738.616 2.298.284 4.725-.937 6.839l-2.383 4.125c-.009.015-.02.029-.028.044-.009.015-.015.031-.023.046l-88.382 153.002c-2.411 4.173-7.518 5.758-11.374 3.54l-32.246-18.609c-3.866-2.238-5.052-7.448-2.643-11.617l22.988-39.78c2.763-4.782 1.127-10.897-3.655-13.66-4.781-2.765-10.898-1.126-13.66 3.654l-22.989 39.78c-7.923 13.709-3.464 31.173 9.952 38.938l32.267 18.622c4.315 2.483 9.038 3.661 13.725 3.661 8.236 0 16.347-3.652 21.931-10.253l42.4 24.465c8.552 4.931 9.644 9.06 11.45 15.9 2.246 8.498 5.321 20.137 22.956 30.309 1.079.623 2.168 1.252 3.253 1.879l-10.88 18.858c-9.129 15.806-3.688 36.103 12.136 45.252l36.292 20.944c5.195 2.99 10.87 4.41 16.478 4.41 11.464 0 22.636-5.94 28.777-16.55l10.878-18.854c4.888 2.729 10.199 4.038 15.449 4.038 11.003 0 21.721-5.702 27.605-15.882 2.708-4.672 4.146-9.849 4.261-15.119 13.049 1.019 26.168-5.329 33.134-17.393 3.39-5.871 4.967-12.461 4.643-19.099 12.682.631 25.345-5.699 32.149-17.451 5.644-9.775 6.025-21.173 2.024-30.888 7.385-2.739 13.895-7.961 18.13-15.296 9.653-16.719 3.907-38.186-12.819-47.859l-17.636-10.174 14.794-25.639 38.848 22.419c4.696 2.712 9.827 4.001 14.897 4 10.338-.001 20.411-5.361 25.948-14.94l46.568-80.66c3.984-6.891 5.036-14.945 2.961-22.679-2.072-7.727-7.009-14.174-13.903-18.157zm-132.086-99.613c19.445-33.647 62.642-45.212 96.294-25.782 16.225 9.369 27.852 24.57 32.74 42.805 4.889 18.237 2.422 37.216-6.947 53.44l-10.128 17.536-122.08-70.442zm-151.113 434.059-36.275-20.934c-6.275-3.628-8.438-11.673-4.819-17.938l10.879-18.856c9.185 5.302 18.481 10.667 27.781 16.035 10.473 6.045 20.944 12.088 31.253 18.039l-10.868 18.836c-3.627 6.267-11.684 8.424-17.951 4.818zm166.223-150.756c-4.143 7.176-13.365 9.641-20.557 5.491-.076-.044-.152-.087-.229-.128l-32.281-18.628c-4.785-2.761-10.9-1.12-13.658 3.663-2.761 4.783-1.12 10.898 3.663 13.658l37.408 21.586c7.177 4.151 9.646 13.366 5.507 20.533-4.157 7.177-13.381 9.643-20.561 5.5l-11.018-6.357c-.247-.15-.495-.298-.747-.443-.134-.078-.269-.151-.404-.222l-25.247-14.568c-4.785-2.761-10.9-1.12-13.658 3.663-2.761 4.783-1.12 10.898 3.663 13.658l26.137 15.082c3.208 2.013 5.508 5.136 6.506 8.85 1.047 3.896.525 7.943-1.469 11.396-4.144 7.176-13.362 9.639-20.559 5.488l-29.195-16.83c-4.784-2.759-10.9-1.115-13.656 3.669-2.759 4.784-1.116 10.898 3.669 13.656l17.738 10.225c.093.058.188.115.282.169 2.726 1.574 4.678 4.132 5.499 7.202.814 3.049.404 6.212-1.162 8.914-3.258 5.638-10.499 7.581-16.133 4.334-2.698-1.558-5.42-3.13-8.151-4.707-.044-.027-.085-.058-.13-.084-.044-.026-.091-.044-.136-.069-13.031-7.524-26.401-15.241-39.779-22.961-16.324-9.421-32.649-18.843-48.354-27.913-10.424-6.013-11.694-10.82-13.616-18.096-2.121-8.029-5.026-19.025-20.794-28.115l-41.975-24.22 76.014-131.592 11.114 6.414 1.637.951c6.638 3.863 11.3 6.35 17.088 6.35 3.98 0 8.493-1.177 14.543-3.892l39.338-17.723c.59.399 1.191.786 1.814 1.145l29.932 17.273c-.36.618-.721 1.237-1.078 1.847-9.888 16.905-21.096 36.064 3.988 56.943.438.364.906.691 1.4.976l55.56 32.053c.085.052.163.112.25.162.067.038.137.064.204.1l26.092 15.052c7.176 4.154 9.644 13.369 5.501 20.545zm-30.457-58.026-46.394-26.765c-10.95-9.321-9.041-13.576 1.116-30.94.376-.643.757-1.296 1.137-1.948l58.937 34.012zm141.06-94.831-46.568 80.661c-2.688 4.647-8.88 6.309-13.528 3.625l-47.353-27.327c-.053-.032-.101-.069-.155-.1s-.109-.054-.163-.083l-114.689-66.187c-2.271-1.312-3.9-3.451-4.585-6.024-.683-2.56-.337-5.212.985-7.489l46.577-80.644c1.308-2.269 3.443-3.897 6.011-4.584.866-.231 1.742-.346 2.611-.346 1.71 0 3.39.444 4.895 1.313.002.001.003.001.004.002l150.536 86.862c.107.067.206.141.316.204.085.049.174.082.26.128l11.219 6.473c2.268 1.31 3.898 3.448 4.589 6.02.689 2.57.348 5.23-.962 7.496z"/><path d="m370.085 136.96-16.042-9.264-16.043-9.265c-4.784-2.763-10.899-1.123-13.659 3.658-2.763 4.782-1.124 10.897 3.658 13.659l7.383 4.264-16.144 27.948c-2.763 4.782-1.125 10.897 3.657 13.659 1.575.91 3.295 1.342 4.992 1.342 3.456 0 6.816-1.793 8.668-5l16.144-27.949 7.386 4.265c1.575.91 3.295 1.342 4.991 1.342 3.456 0 6.817-1.793 8.668-5 2.762-4.782 1.123-10.897-3.659-13.659z"/></g></g></svg>