<svg id="Layer_1_1_" enable-background="new 0 0 64 64" height="512" viewBox="0 0 64 64" width="512" xmlns="http://www.w3.org/2000/svg"><path d="m23 44v-25c0-8.837 7.163-16 16-16s16 7.163 16 16v25" fill="#332813"/><path d="m16 3-9 2v3l9-2z" fill="#eb4938"/><path d="m59 52-8 4v5h8z" fill="#fce0b9"/><path d="m59 52v-2c0-3.314-2.686-6-6-6h-4v6l-10 4-10-4v-6h-4c-3.314 0-6 2.686-6 6v2l8 4v5h24v-5z" fill="#3a4c63"/><path d="m19 52v9h8v-5z" fill="#fce0b9"/><path d="m39 35c1.657 0 3-1.343 3-3h-6c0 1.657 1.343 3 3 3z" fill="#e18080"/><path d="m12.77 27.113c-3.756-.914-7.542 1.391-8.456 5.147-.477 1.959-.072 3.922.952 5.486.939 1.434 2.398 2.533 4.195 2.97 3.756.914 7.542-1.391 8.456-5.147.914-3.757-1.391-7.543-5.147-8.456z" fill="#292929"/><g fill="#eb4938"><circle cx="5" cy="16" r="2"/><circle cx="58.647" cy="12.999" r="2"/><circle cx="14" cy="14" r="2"/></g><path d="m44 41v-4.21c-1.501.768-3.198 1.21-5 1.21s-3.499-.442-5-1.21v4.21c0 1.657-1.343 3-3 3h-2v6l10 4 10-4v-6h-2c-1.657 0-3-1.343-3-3z" fill="#fce0b9"/><path d="m39 38c6.075 0 11-4.925 11-11v-6h-.877c-1.835 0-3.435-1.249-3.881-3.03l-2.242-7.97-2.053 7.213c-.557 2.225-2.557 3.787-4.851 3.787h-8.096v6c0 6.075 4.925 11 11 11zm3-6c0 1.657-1.343 3-3 3s-3-1.343-3-3z" fill="#fce0b9"/><path d="m39 3c-8.837 0-16 7.163-16 16v3c0-8.837 7.163-16 16-16s16 7.163 16 16v-3c0-8.837-7.163-16-16-16z" fill="#47381b"/><path d="m53 44h-4v2 1 3l-10 4-10-4v-3-1-2h-4c-3.314 0-6 2.686-6 6v2l.084.042c.459-2.857 2.929-5.042 5.916-5.042h2v5l2 1 10 4 10-4 2-1v-5h2c2.987 0 5.457 2.185 5.916 5.042l.084-.042v-2c0-3.314-2.686-6-6-6z" fill="#314154"/><path d="m49.123 21c-1.835 0-3.435-1.249-3.881-3.03l-2.242-7.97-2.053 7.213c-.557 2.225-2.557 3.787-4.851 3.787h-8.096v3h8.096c2.294 0 4.294-1.562 4.851-3.787l2.053-7.213 2.243 7.97c.445 1.781 2.045 3.03 3.881 3.03h.876v-3z" fill="#f5cba1"/><path d="m45.241 43.42c-.749-.545-1.241-1.423-1.241-2.42v-4.21c-1.501.768-3.198 1.21-5 1.21s-3.499-.442-5-1.21v4.21c0 1.657-1.343 3-3 3h-2v5.818z" fill="#f5cba1"/><path d="m9.461 40.716c-1.797-.437-3.256-1.536-4.195-2.97l-2.266 16.836 5.83 1.418 5.721-15.995c-1.493.842-3.293 1.148-5.09.711z" fill="#606060"/><path d="m9.461 40.716c-1.797-.437-3.256-1.536-4.195-2.97l-.533 3.958c1.131.932 2.478 1.638 3.999 2.008 1.52.37 3.04.362 4.473.057l1.346-3.764c-1.493.842-3.293 1.148-5.09.711z" fill="#454545"/><path d="m12.77 27.113c-3.568-.868-7.157 1.17-8.292 4.594 1.64-2.107 4.415-3.179 7.177-2.507 3.756.914 6.061 4.7 5.147 8.456-.046.189-.104.371-.164.553.59-.758 1.037-1.646 1.279-2.64.914-3.757-1.391-7.543-5.147-8.456z" fill="#454545"/><path d="m34 28.75c-.965 0-1.75-.785-1.75-1.75s.785-1.75 1.75-1.75 1.75.785 1.75 1.75-.785 1.75-1.75 1.75zm0-2c-.138 0-.25.112-.25.25 0 .275.5.275.5 0 0-.138-.112-.25-.25-.25z"/><path d="m44 28.75c-.965 0-1.75-.785-1.75-1.75s.785-1.75 1.75-1.75 1.75.785 1.75 1.75-.785 1.75-1.75 1.75zm0-2c-.138 0-.25.112-.25.25 0 .275.5.275.5 0 0-.138-.112-.25-.25-.25z"/><path d="m39 35.75c-2.067 0-3.75-1.682-3.75-3.75 0-.414.336-.75.75-.75h6c.414 0 .75.336.75.75 0 2.068-1.683 3.75-3.75 3.75zm-2.121-3c.31.873 1.144 1.5 2.121 1.5s1.812-.627 2.121-1.5z"/><path d="m60 61v-11c0-2.785-1.639-5.189-4-6.315v-24.685c0-9.374-7.626-17-17-17s-17 7.626-17 17v24.685c-2.361 1.126-4 3.53-4 6.315v11c0 .552.447 1 1 1h40c.553 0 1-.448 1-1zm-36-42c0-8.271 6.729-15 15-15s15 6.729 15 15v24.08c-.328-.047-.66-.08-1-.08h-6c-1.103 0-2-.897-2-2v-3.624c3.581-2.079 6-5.946 6-10.376v-5h1v-2h-2.877c-1.379 0-2.576-.935-2.918-2.301l-2.242-7.97c-.121-.431-.514-.729-.961-.729-.001 0-.001 0-.002 0-.447 0-.84.296-.962.726l-2.061 7.244c-.446 1.784-2.042 3.03-3.881 3.03h-10.096v2h1v5c0 4.43 2.419 8.298 6 10.376v3.624c0 1.103-.897 2-2 2h-6c-.34 0-.672.033-1 .08zm6 26h1c.855 0 1.645-.275 2.296-.734l4.704 2.352v1.382h2v-1.382l4.704-2.352c.651.459 1.441.734 2.296.734h1v4.323l-9 3.6-9-3.6zm-1-23h7.096c2.759 0 5.152-1.869 5.813-4.513l1.085-3.814 1.278 4.541c.547 2.189 2.482 3.721 4.728 3.777v5.009c0 5.514-4.486 10-10 10s-10-4.486-10-10zm10 17c1.404 0 2.747-.255 4-.7v2.7c0 .605.145 1.174.387 1.688l-4.387 2.194-4.387-2.193c.242-.515.387-1.084.387-1.689v-2.7c1.253.445 2.596.7 4 .7zm-14 6h3v5c0 .409.249.776.629.929l10 4c.119.047.245.071.371.071s.252-.024.371-.071l10-4c.38-.153.629-.52.629-.929v-5h3c2.757 0 5 2.243 5 5v1.382l-7.447 3.724c-.339.169-.553.515-.553.894v4h-22v-4c0-.379-.214-.725-.553-.895l-7.447-3.723v-1.382c0-2.757 2.243-5 5-5zm-5 8.618 6 3v3.382h-6zm32 6.382v-3.382l6-3v6.382z"/><path d="m8.83 57c.414 0 .797-.258.941-.663l5.6-15.654c1.772-1.114 3.022-2.839 3.518-4.877.505-2.076.172-4.225-.939-6.05-1.111-1.826-2.867-3.109-4.943-3.614-2.074-.504-4.225-.171-6.05.939-1.825 1.111-3.109 2.867-3.614 4.943-.496 2.038-.179 4.145.884 5.949l-2.218 16.475c-.068.507.258.984.755 1.105l1.043.254c-.163 1.365.179 2.734 1.008 3.884 1.057 1.468 2.701 2.309 4.509 2.309h6.676v-2h-6.676c-1.158 0-2.21-.539-2.887-1.478-.479-.665-.695-1.446-.658-2.235l2.814.685c.08.019.159.028.237.028zm-2.84-19.966c-.252-.414-.444-.852-.588-1.302 1.411.925 3.013 1.642 4.768 2.069 1.248.304 2.497.456 3.719.456.482 0 .957-.032 1.428-.079-.327.321-.681.618-1.083.863-1.37.834-2.983 1.083-4.537.705-1.557-.381-2.874-1.343-3.707-2.712zm2.006-8.245c.952-.58 2.021-.877 3.107-.877.477 0 .956.057 1.43.172 1.558.379 2.874 1.341 3.707 2.71.834 1.369 1.084 2.98.705 4.538-.047.193-.129.369-.194.554-1.886.47-4.028.478-6.109-.029-2.092-.509-4.002-1.506-5.465-2.8.027-.187.063-.375.108-.561.379-1.557 1.342-2.873 2.711-3.707zm-3.885 25.034 1.856-13.79c.933.786 2.037 1.358 3.258 1.655.632.154 1.271.23 1.905.23.592 0 1.177-.083 1.752-.214l-4.691 13.111z"/><path d="m7.515 43.603h2v2h-2z" transform="matrix(.236 -.972 .972 .236 -36.837 42.335)"/><path d="m5 19c1.654 0 3-1.346 3-3v-7.198l7-1.556v3.938c-.314-.112-.648-.184-1-.184-1.654 0-3 1.346-3 3s1.346 3 3 3 3-1.346 3-3v-8-3c0-.303-.138-.59-.374-.78-.237-.189-.549-.263-.843-.196l-9 2c-.458.101-.783.507-.783.976v3 5.184c-.314-.112-.648-.184-1-.184-1.654 0-3 1.346-3 3s1.346 3 3 3zm9-4c-.552 0-1-.449-1-1s.448-1 1-1 1 .449 1 1-.448 1-1 1zm1-10.753v.951l-7 1.556v-.952zm-10 10.753c.552 0 1 .449 1 1s-.448 1-1 1-1-.449-1-1 .448-1 1-1z"/><path d="m61.703 2.624-3.819 1.188c-.527.164-.822.725-.658 1.252l1.54 4.95c-.334-.014-.674.016-1.01.121-1.579.492-2.465 2.176-1.974 3.755.4 1.284 1.588 2.11 2.867 2.11.294 0 .594-.043.889-.135 1.58-.492 2.465-2.176 1.974-3.756l-2.079-6.684 2.864-.891zm-2.759 11.33c-.524.161-1.089-.131-1.252-.658-.164-.526.131-1.088.657-1.251.099-.031.199-.045.297-.045.426 0 .822.275.955.703.165.526-.13 1.088-.657 1.251z"/></svg>