<svg id="Filled" height="512" viewBox="0 0 512 512" width="512" xmlns="http://www.w3.org/2000/svg"><circle cx="304" cy="200" fill="#f0c6a4" r="32"/><circle cx="96" cy="200" fill="#f0c6a4" r="32"/><rect fill="#f7cca9" height="240" rx="104" width="208" x="96" y="56"/><path d="m88 136a112 112 0 0 1 224 0" fill="#35a872"/><path d="m285.83 64.05a15.979 15.979 0 0 1 -13.83 7.95h-32a16 16 0 0 1 -16-16h-16a16 16 0 0 1 -2.2-31.85 111.7 111.7 0 0 1 79.99 39.85c.01.02.03.03.04.05z" fill="#20754d"/><path d="m360 328v160h-320v-160c0-17.67 15.084-32 33.684-32h252.632c18.6 0 33.684 14.33 33.684 32z" fill="#35a872"/><path d="m360 328v160h-160v-192h126.32c18.6 0 33.68 14.33 33.68 32z" fill="#35a872"/><path d="m112 376a16 16 0 0 1 -16 16h-56v-48h24a16 16 0 0 1 16 16h16a16 16 0 0 1 16 16z" fill="#20754d"/><path d="m360 328h-40a16 16 0 0 1 -16-16v-16h24a32 32 0 0 1 32 32z" fill="#3dc285"/><path d="m360 408v48h-24a16 16 0 0 1 -16-16h-16a16 16 0 0 1 0-32z" fill="#20754d"/><g fill="#3dc285"><path d="m240 408v32h-40v-48h24a16 16 0 0 1 16 16z"/><path d="m200 392v48h-40a16 16 0 0 1 0-32h16a16 16 0 0 1 16-16z"/><path d="m80 472v16h-40v-32h24a16 16 0 0 1 16 16z"/></g><rect fill="#20754d" height="32" rx="16" width="272" x="64" y="136"/><path d="m168 120a16 16 0 0 1 -16 16h-64a111.663 111.663 0 0 1 10.79-48h21.21a16 16 0 0 1 16 16h16a16 16 0 0 1 16 16z" fill="#3dc285"/><path d="m248 168h-96l-8-32h112z" fill="#3dc285"/><path d="m424 264s40 0 48-24v48s-24 16-48 16z" fill="#4f5659"/><path d="m360 168h32v64h-32z" fill="#757c80" transform="matrix(-1 0 0 -1 752 400)"/><path d="m360 232h32v32h-32z" fill="#4f5659" transform="matrix(0 1 -1 0 624 -128)"/><path d="m360 264h64v112h-64z" fill="#757c80" transform="matrix(-1 0 0 -1 784 640)"/><path d="m392 344h32v32h-32z" fill="#606669" transform="matrix(-1 0 0 -1 816 720)"/><path d="m360 376v112h64s-32-31.488-32-53.446v-58.554z" fill="#4f5659"/><path d="m376 376h32a0 0 0 0 1 0 0v64a0 0 0 0 1 0 0h-32a16 16 0 0 1 -16-16v-32a16 16 0 0 1 16-16z" fill="#f7cca9" transform="matrix(-1 0 0 -1 768 816)"/><path d="m208 296-64 48v-48z" fill="#20754d"/><path d="m192 296 64 48v-48z" fill="#20754d"/><path d="m32 328v160a8 8 0 0 0 8 8h384a8 8 0 0 0 5.613-13.7c-6.028-5.942-20.774-22.471-26.9-36.835a24.023 24.023 0 0 0 13.287-21.465v-32a23.885 23.885 0 0 0 -1.376-8h57.376a8 8 0 0 0 0-16h-40v-56.5c23.056-2.759 43.484-16.208 44.438-16.844a8 8 0 0 0 3.562-6.656v-48a8 8 0 0 0 -15.59-2.53c-5.037 15.113-30.888 18.5-40.423 18.53h-23.987v-88a8 8 0 0 0 -8-8h-8v-56a8 8 0 0 0 -16 0v56h-8a8 8 0 0 0 -8 8v128.53a42.584 42.584 0 0 0 -25.685-8.53h-68.684a112.769 112.769 0 0 0 43.548-48h2.821a39.97 39.97 0 0 0 28.8-67.715 23.99 23.99 0 0 0 -12.8-44.285h-.273a119.46 119.46 0 0 0 -28.112-69.409l-.194-.269-.018.019a119.939 119.939 0 0 0 -211.13 69.659h-.273a23.99 23.99 0 0 0 -12.8 44.285 39.97 39.97 0 0 0 28.8 67.715h2.821a112.769 112.769 0 0 0 43.548 48h-68.684c-22.985 0-41.685 17.944-41.685 40zm16 24h16a8.009 8.009 0 0 1 8 8 8 8 0 0 0 8 8h16a8 8 0 0 1 0 16h-48zm0 112h16a8.009 8.009 0 0 1 8 8v8h-24zm40 16v-8a24.027 24.027 0 0 0 -24-24h-16v-48h48a24 24 0 0 0 0-48h-9.371a24.042 24.042 0 0 0 -22.629-16h-16v-8c0-13.234 11.522-24 25.685-24h62.315v40a8 8 0 0 0 12.8 6.4l43.2-32.4v66a24.042 24.042 0 0 0 -22.629 16h-9.371a24 24 0 0 0 0 48h32v32zm96-176-32 24v-24zm24 96h16a8.009 8.009 0 0 1 8 8v24h-24zm-16 32h-32a8 8 0 0 1 0-16h16a8 8 0 0 0 8-8 8.009 8.009 0 0 1 8-8zm16 16h32a8 8 0 0 0 8-8v-32a24.027 24.027 0 0 0 -24-24h-16v-66l43.2 32.4a8 8 0 0 0 12.8-6.4v-40h32v8a24.027 24.027 0 0 0 24 24h32v64h-48a24 24 0 0 0 0 48h9.371a24.042 24.042 0 0 0 22.629 16h16v16h-144zm8-144h32v24zm136 144h-16a8.009 8.009 0 0 1 -8-8 8 8 0 0 0 -8-8h-16a8 8 0 0 1 0-16h48zm16 32v-32h18.569c4.074 11.492 12.383 23.272 19.5 32zm32-88v32a8.009 8.009 0 0 1 -8 8h-24v-48h24a8.009 8.009 0 0 1 8 8zm16-24h-16v-16h16zm48-106.472v21.965c-5.953 3.4-18.584 9.825-32 11.858v-23.851c8.257-.873 21.352-3.29 32-9.972zm-48 74.472h-24a8 8 0 0 0 -8 8v24h-16v-96h48zm-48-80v-16h16v16zm16-80v48h-16v-48zm-33.473 144h-30.527a8.009 8.009 0 0 1 -8-8v-8h14.315c11.161 0 20.678 6.689 24.212 16zm-43.119-96.246a111.652 111.652 0 0 0 4.592-31.754v-14.624a24 24 0 0 1 -4.592 46.378zm20.592-71.754a8.009 8.009 0 0 1 -8 8h-61.754l4-16h57.754a8.009 8.009 0 0 1 8 8zm-169.754 8-4-16h91.508l-4 16zm116.3-96.437a7.942 7.942 0 0 1 -2.546.437h-32a8.009 8.009 0 0 1 -8-8 8 8 0 0 0 -8-8h-16a8 8 0 0 1 -1.749-15.807 103.721 103.721 0 0 1 68.297 31.37zm-89.5-30.483a23.771 23.771 0 0 0 -1.046 6.92 24.028 24.028 0 0 0 24 24h9.371a24.042 24.042 0 0 0 22.629 16h32a24.018 24.018 0 0 0 13-3.851 103.371 103.371 0 0 1 18.7 51.851h-129.076a23.992 23.992 0 0 0 -22.624-32h-9.371a24.042 24.042 0 0 0 -22.629-16h-7.6a104.182 104.182 0 0 1 72.643-46.92zm-81.041 62.92h16a8.009 8.009 0 0 1 8 8 8 8 0 0 0 8 8h16a8 8 0 0 1 0 16h-55.7a103.19 103.19 0 0 1 7.7-32zm-24.005 48h57.754l4 16h-61.754a8 8 0 0 1 0-16zm-8 56a24.039 24.039 0 0 1 16-22.624v14.624a111.652 111.652 0 0 0 4.592 31.754 24.035 24.035 0 0 1 -20.592-23.754zm32-8v-16h192v16a96 96 0 0 1 -192 0z"/><circle cx="240" cy="200" r="8"/><circle cx="160" cy="200" r="8"/><path d="m192 224h16a8 8 0 0 0 0-16h-8v-8a8 8 0 0 0 -16 0v16a8 8 0 0 0 8 8z"/><path d="m243.077 224.615a8 8 0 0 0 -10.462 4.308c-.079.191-8.23 19.077-32.615 19.077-23.955 0-32.248-18.238-32.636-19.126a8 8 0 0 0 -14.749 6.2c.492 1.184 12.453 28.926 47.385 28.926s46.893-27.742 47.385-28.923a8 8 0 0 0 -4.308-10.462z"/></svg>