<svg id="_x33_0" enable-background="new 0 0 64 64" height="512" viewBox="0 0 64 64" width="512" xmlns="http://www.w3.org/2000/svg"><g><g><g><path d="m16 53c0 1.05.18 2.06.52 3h-.01-2.51c-1.1 0-2-.9-2-2v-2h4.06c-.04.33-.06.66-.06 1z" fill="#ccd1d9"/></g><g><path d="m56 28-2.18 14.51c-.24 1.58-1.03 2.95-2.16 3.93-1.14.98-2.62 1.56-4.21 1.56-2.16 0-4.17-1.08-5.36-2.87l-2.09-3.13v12c0 1.1-.9 2-2 2h-2.51-.01l.52-3c0-1.95-.63-3.84-1.8-5.4l-4.2-5.6-.05-.04.31-.46c1.09-1.63 1.66-3.54 1.66-5.5 0 0-.5-.5-1.75-1s-3.25-1-6.25-1c0 .67.04 1.34.13 2h-.01-.88c-1.37 0-2.62.77-3.24 2l2 4h.08l-3 4h-1v6h-1.94-4.06-1c-2.76 0-5-2.24-5-5v-4c0-6.3 2.96-12.22 8-16l.63.32c1.09.54 2.22 1.01 3.37 1.39 1.3.43 2.64.76 4 .97 1.31.21 2.65.32 4 .32s2.69-.11 4-.32c.62-.09 1.23-.22 1.84-.36.73-.17 1.45-.38 2.16-.61 1.15-.38 2.28-.85 3.37-1.39l.63-.32c3.79 2.53 6.89 5.97 9 10.01l3-9.01.46.93c.33.66 1 1.07 1.74 1.07.51 0 1-.2 1.37-.57l1.53-1.53c.02-.02.05-.05.08-.08.25.12.53.18.82.18z" fill="#ccd1d9"/></g><g><path d="m31.92 36c0 1.96-.57 3.87-1.66 5.5l-.31.46-.03.04h-4l-.21-.42c-.87-1.76-1.44-3.64-1.66-5.58-.09-.66-.13-1.33-.13-2 3 0 5 .5 6.25 1s1.75 1 1.75 1z" fill="#a0d468"/></g><g><path d="m23.16 36h.88.01c.22 1.94.79 3.82 1.66 5.58l.21.42h-3.92-.08l-2-4c.62-1.23 1.87-2 3.24-2z" fill="#b4dd7f"/></g><g><path d="m30 42 4.2 5.6c1.17 1.56 1.8 3.45 1.8 5.4l-.52 3c-.45 1.28-1.18 2.43-2.12 3.36-1.62 1.63-3.88 2.64-6.36 2.64h-2c-3.92 0-7.25-2.5-8.48-6-.34-.94-.52-1.95-.52-3 0-.34.02-.67.06-1h1.94 3c1.66 0 3-1.34 3-3 0-.83-.34-1.58-.88-2.12s-1.29-.88-2.12-.88h-2l3-4h3.92 4l.03-.04z" fill="#b4dd7f"/></g><g><path d="m7.68 19.65c.2.4.32.86.32 1.35 0 1.66-1.34 3-3 3s-3-1.34-3-3 1.34-3 3-3c.31 0 .62.05.9.14.78.24 1.42.79 1.78 1.51z" fill="#aab2bd"/></g><g><path d="m34 28.71c-.71.23-1.43.44-2.16.61-.61.14-1.22.27-1.84.36-1.31.21-2.65.32-4 .32s-2.69-.11-4-.32c-1.36-.21-2.7-.54-4-.97-1.15-.38-2.28-.85-3.37-1.39l-.63-.32v-12c0-.33.02-.66.06-.99l-.06-.01c-1.95.65-3.64 1.9-4.84 3.57l-1.48 2.08c-.36-.72-1-1.27-1.78-1.51l1.57-4.96c2.1-6.65 8.28-11.18 15.26-11.18h3.27c6.63 0 12 5.37 12 12v13l-.63.32c-1.09.54-2.22 1.01-3.37 1.39z" fill="#aab2bd"/></g><g><path d="m34 15.76c0 2.34-1.9 4.24-4.24 4.24-1.13 0-2.21-.45-3-1.24l-.76-.76-.76.76c-.79.79-1.87 1.24-3 1.24-1.17 0-2.23-.48-3-1.24-.76-.77-1.24-1.83-1.24-3v-1.76c0-1.1.9-2 2-2h12c1.1 0 2 .9 2 2z" fill="#e6e9ed"/></g><g><path d="m19 46h2c.83 0 1.58.34 2.12.88s.88 1.29.88 2.12c0 1.66-1.34 3-3 3h-3v-6z" fill="#f0d0b4"/></g><g><path d="m58 26c0 1.1-.9 2-2 2-.29 0-.57-.06-.82-.18-.69-.31-1.18-1.01-1.18-1.82v-4c0-.26.05-.5.14-.73.29-.74 1.02-1.27 1.86-1.27.55 0 1.05.22 1.41.59.37.36.59.86.59 1.41z" fill="#f0d0b4"/></g><g><path d="m58 8 1.29 1.29c.46.46.71 1.07.71 1.71s-.25 1.25-.71 1.71l-4.76 4.76c-.91.91-1.14 2.31-.56 3.46l.17.34c-.09.23-.14.47-.14.73v4c0 .81.49 1.51 1.18 1.82-.03.03-.06.06-.08.08l-1.53 1.53c-.37.37-.86.57-1.37.57-.74 0-1.41-.41-1.74-1.07l-.46-.93-2.17-4.34c-.51-1.02-1.55-1.66-2.68-1.66h-2.15c-.55 0-1-.45-1-1v-2.17c0-.53.21-1.04.59-1.42l.41-.41 10.29-10.29c.46-.46 1.07-.71 1.71-.71s1.25.25 1.71.71z" fill="#aab2bd"/></g></g><g><circle cx="22" cy="16" r="1"/><circle cx="30" cy="16" r="1"/><path d="m17 14v1.758c0 2.89 2.352 5.242 5.242 5.242 1.4 0 2.717-.545 3.707-1.535l.051-.051.051.051c.99.99 2.307 1.535 3.707 1.535 2.89 0 5.242-2.352 5.242-5.242v-1.758c0-1.654-1.346-3-3-3h-12c-1.654 0-3 1.346-3 3zm16 0v1.758c0 1.788-1.454 3.242-3.242 3.242-.866 0-1.681-.337-2.293-.949l-1.465-1.465-1.465 1.465c-.612.612-1.427.949-2.293.949-1.788 0-3.242-1.454-3.242-3.242v-1.758c0-.552.448-1 1-1h12c.552 0 1 .448 1 1z"/><path d="m57.414 6c-1.289-1.289-3.539-1.289-4.828 0l-8.586 8.586v-1.586h-2v3.586l-.121.121c-.566.566-.879 1.32-.879 2.121v2.172c0 1.103.897 2 2 2h2.146c.763 0 1.448.424 1.789 1.105l1.986 3.971-2.172 6.516c-2.01-3.186-4.652-5.953-7.749-8.107v-12.485c0-7.168-5.832-13-13-13h-3.273c-7.453 0-13.967 4.774-16.211 11.881l-1.307 4.14c-.071-.004-.138-.021-.209-.021-2.206 0-4 1.794-4 4s1.794 4 4 4 4-1.794 4-4c0-.419-.083-.816-.203-1.196l1.179-1.65c.798-1.117 1.829-2.011 3.024-2.64v11.006c-5.015 3.959-8 10.077-8 16.48v4c0 3.309 2.691 6 6 6v1c0 1.654 1.346 3 3 3h1.841c1.547 3.527 5.068 6 9.159 6h2c4.091 0 7.612-2.473 9.159-6h1.841c1.654 0 3-1.346 3-3v-8.698l.255.382c1.384 2.077 3.699 3.316 6.194 3.316 3.656 0 6.821-2.727 7.363-6.341l2.071-13.807c1.222-.38 2.117-1.507 2.117-2.852v-4c0-1.654-1.346-3-3-3-.478 0-.923.122-1.325.322.058-.423.244-.827.561-1.144l4.764-4.764c.645-.645 1-1.502 1-2.414s-.355-1.77-1-2.414zm-52.414 17c-1.103 0-2-.897-2-2s.897-2 2-2 2 .897 2 2-.897 2-2 2zm3.349-6.008-.724 1.013c-.161-.141-.327-.272-.509-.386l1.306-4.137c1.981-6.269 7.729-10.482 14.305-10.482h3.273c6.065 0 11 4.935 11 11v12.382l-.081.04c-.625.313-1.268.587-1.919.841v-2.263h-2v2.956c-.659.193-1.327.348-2 .485v-5.441h-2v5.769c-.664.079-1.331.129-2 .155v-3.924h-2v3.924c-.669-.026-1.336-.076-2-.155v-5.769h-2v5.441c-.673-.137-1.341-.292-2-.485v-2.956h-2v2.263c-.651-.255-1.294-.529-1.92-.842l-.08-.039v-11.382c0-4.411 3.589-8 8-8v-2c-4.915 0-9.004 3.568-9.836 8.248-1.94.758-3.599 2.039-4.815 3.744zm5.651 38.008c-.552 0-1-.448-1-1v-1h2c0 .685.07 1.354.202 2zm7-8c1.103 0 2 .897 2 2s-.897 2-2 2h-2v-4zm6 14h-2c-4.411 0-8-3.589-8-8h4c1.051 0 2-.415 2.715-1.08.55.655 1.365 1.08 2.285 1.08.552 0 1 .448 1 1v1h-1c-.552 0-1-.448-1-1v-1h-2v1c0 1.302.839 2.402 2 2.816v2.184h2v-2h2v-3c0-1.654-1.346-3-3-3-.552 0-1-.448-1-1v-1h1c.552 0 1 .448 1 1v1h2v-1c0-1.302-.839-2.402-2-2.816v-2.184h-2v2h-.556c-.694-1.19-1.97-2-3.444-2l1.5-2h7.001l3.9 5.199c1.031 1.377 1.599 3.082 1.599 4.801 0 4.411-3.589 8-8 8zm-4.457-20-1.477-2.953c.489-.655 1.256-1.047 2.095-1.047h.019c.233 1.372.626 2.718 1.167 4zm6.886-.059-.039.059h-2.846c-.91-1.863-1.451-3.909-1.586-5.979 3.503.15 5.293 1.043 5.954 1.465-.087 1.591-.595 3.122-1.483 4.455zm18.02 6.059c-1.824 0-3.518-.906-4.53-2.425l-1.919-2.878v-2.697h-2v15c0 .552-.448 1-1 1h-1.202c.132-.646.202-1.315.202-2 0-2.148-.71-4.279-2-6l-3.819-5.092c1.139-1.766 1.744-3.804 1.744-5.908v-.414l-.293-.293c-.235-.234-2.473-2.293-8.707-2.293h-1v1c0 .335.01.67.028 1.005-1.676.073-3.166 1.035-3.923 2.548l-.223.447 1.978 3.955-2.285 3.045h-5.5v-6h-2v6h-2v2h8v4h-6c-2.206 0-4-1.794-4-4v-4c0-5.745 2.655-11.236 7.124-14.82l.063.031c3.649 1.824 7.734 2.789 11.813 2.789s8.164-.965 11.813-2.789l.096-.048c3.316 2.318 6.067 5.392 8.001 8.948l-1.858 5.573 1.896.633 4.341-13.022c.521.447 1.191.705 1.908.705.773 0 1.53-.313 2.077-.86l.463-.464-1.903 12.686c-.396 2.645-2.711 4.638-5.385 4.638zm8.551-26c.552 0 1 .448 1 1v4c0 .552-.448 1-1 1s-1-.448-1-1v-4c0-.552.448-1 1-1zm2.586-9-4.764 4.764c-1.217 1.217-1.518 3.066-.753 4.607-.044.203-.069.413-.069.629v4c0 .722.266 1.375.692 1.894l-.832.832c-.429.427-1.23.298-1.501-.244l-2.636-5.271c-.681-1.363-2.052-2.211-3.577-2.211h-2.146v-2.172c0-.263.106-.521.293-.707l10.707-10.707c.535-.533 1.465-.533 2 0l.586.586-9.293 9.293 1.414 1.414 9.293-9.293.586.586c.267.268.414.622.414 1s-.147.732-.414 1z"/><path d="m58.379 2.5h4.243v2h-4.243z" transform="matrix(.707 -.707 .707 .707 15.245 43.805)"/><path d="m56 1h2v2h-2z"/><path d="m61 6h2v2h-2z"/></g></g></svg>